<svg width="101" height="100" viewBox="0 0 101 100" fill="none" xmlns="http://www.w3.org/2000/svg">
<g clip-path="url(#clip0_124_1274)">
<path d="M92.7687 0.468015C93.2214 0.74798 93.5951 1.13893 93.8543 1.60379C94.1135 2.06865 94.2497 2.59201 94.25 3.12427V96.8743C94.25 97.7031 93.9208 98.4979 93.3347 99.084C92.7487 99.67 91.9538 99.9993 91.125 99.9993H72.375C71.5462 99.9993 70.7513 99.67 70.1653 99.084C69.5792 98.4979 69.25 97.7031 69.25 96.8743V87.4993H63V96.8743C63 97.7031 62.6708 98.4979 62.0847 99.084C61.4987 99.67 60.7038 99.9993 59.875 99.9993H3.625C2.7962 99.9993 2.00134 99.67 1.41529 99.084C0.82924 98.4979 0.5 97.7031 0.5 96.8743V62.4993C0.500498 61.8437 0.707176 61.2048 1.09078 60.6732C1.47439 60.1415 2.01549 59.7439 2.6375 59.5368L38 47.7493V28.1243C38 27.5444 38.1614 26.976 38.466 26.4826C38.7707 25.9892 39.2066 25.5903 39.725 25.3305L89.725 0.330515C90.2019 0.0918017 90.732 -0.0208838 91.2648 0.00318425C91.7975 0.0272523 92.3153 0.187273 92.7687 0.468015ZM38 54.3368L6.75 64.7493V93.7493H38V54.3368ZM44.25 93.7493H56.75V84.3743C56.75 83.5455 57.0792 82.7506 57.6653 82.1646C58.2513 81.5785 59.0462 81.2493 59.875 81.2493H72.375C73.2038 81.2493 73.9987 81.5785 74.5847 82.1646C75.1708 82.7506 75.5 83.5455 75.5 84.3743V93.7493H88V8.18052L44.25 30.0555V93.7493Z" fill="#C2E8FF"/>
<path d="M13 68.75H19.25V75H13V68.75ZM25.5 68.75H31.75V75H25.5V68.75ZM13 81.25H19.25V87.5H13V81.25ZM25.5 81.25H31.75V87.5H25.5V81.25ZM50.5 56.25H56.75V62.5H50.5V56.25ZM63 56.25H69.25V62.5H63V56.25ZM50.5 68.75H56.75V75H50.5V68.75ZM63 68.75H69.25V75H63V68.75ZM75.5 56.25H81.75V62.5H75.5V56.25ZM75.5 68.75H81.75V75H75.5V68.75ZM50.5 43.75H56.75V50H50.5V43.75ZM63 43.75H69.25V50H63V43.75ZM75.5 43.75H81.75V50H75.5V43.75ZM50.5 31.25H56.75V37.5H50.5V31.25ZM63 31.25H69.25V37.5H63V31.25ZM75.5 31.25H81.75V37.5H75.5V31.25ZM75.5 18.75H81.75V25H75.5V18.75Z" fill="#C2E8FF"/>
</g>
<defs>
<clipPath id="clip0_124_1274">
<rect width="100" height="100" fill="white" transform="translate(0.5)"/>
</clipPath>
</defs>
</svg>
