<svg width="968" height="580" viewBox="0 0 968 580" fill="none" xmlns="http://www.w3.org/2000/svg">
<rect width="967.37" height="580" rx="20" fill="#010F21" fill-opacity="0.6"/>
<path d="M857.614 539.021C870.596 539.021 881.121 537.266 881.121 535.103C881.121 532.939 870.596 531.185 857.614 531.185C844.632 531.185 834.108 532.939 834.108 535.103C834.108 537.266 844.632 539.021 857.614 539.021Z" fill="#F2F2F2"/>
<path d="M885.038 160.96H883.079V202.096H885.038V160.96Z" fill="#F2F2F2"/>
<path d="M863.491 134.515H851.737V540H863.491V134.515Z" fill="#F2F2F2"/>
<path d="M911.422 166.347H803.806C802.626 166.347 801.459 166.096 800.383 165.61C799.306 165.125 798.346 164.416 797.565 163.531C796.783 162.646 796.199 161.605 795.851 160.477C795.503 159.349 795.399 158.16 795.545 156.989L809.257 47.2927C809.512 45.2803 810.491 43.4297 812.011 42.0873C813.532 40.745 815.49 40.0029 817.518 40H897.71C899.738 40.0029 901.696 40.745 903.217 42.0873C904.737 43.4297 905.716 45.2803 905.971 47.2927L919.683 156.989C919.829 158.16 919.725 159.349 919.377 160.477C919.029 161.605 918.445 162.646 917.663 163.531C916.882 164.416 915.922 165.125 914.846 165.61C913.77 166.096 912.603 166.347 911.422 166.347Z" fill="#F2F2F2"/>
<path d="M884.059 208.952C887.845 208.952 890.915 205.882 890.915 202.096C890.915 198.309 887.845 195.24 884.059 195.24C880.272 195.24 877.203 198.309 877.203 202.096C877.203 205.882 880.272 208.952 884.059 208.952Z" fill="#F2F2F2"/>
<path d="M162.978 431.15C158.03 448.316 143.582 460.332 128.511 470.54C126.406 471.965 124.301 473.358 122.195 474.718C122.181 474.724 122.167 474.738 122.152 474.744C122.051 474.809 121.949 474.874 121.855 474.94C121.42 475.22 120.986 475.5 120.555 475.777L120.791 475.884C120.791 475.884 121.024 476.007 120.769 475.903C120.694 475.872 120.614 475.843 120.539 475.812C111.783 472.28 102.872 468.489 96.1626 461.874C89.2023 455.004 85.1347 444.23 88.9036 435.206C89.399 434.024 90.0248 432.901 90.7693 431.857C91.075 431.42 91.4043 431.001 91.7471 430.59C93.8261 428.053 96.5434 426.115 99.6196 424.976C102.696 423.837 106.02 423.538 109.25 424.109C112.48 424.681 115.5 426.102 117.998 428.228C120.497 430.353 122.385 433.105 123.467 436.202C124.574 425.893 116.073 417.257 107.892 410.885C99.708 404.517 90.4082 397.581 88.8259 387.329C87.9423 381.625 89.9259 376.097 93.5392 371.66C93.6511 371.525 93.7628 371.39 93.878 371.259C98.2765 366.091 104.463 362.772 111.201 361.966C123.751 360.661 135.941 367.304 145.058 376.03C159.732 390.069 168.603 411.632 162.978 431.15Z" fill="#F2F2F2"/>
<path d="M139.389 408.697C141.798 412.444 143.647 416.523 144.879 420.804C145.92 424.63 146.383 428.591 146.254 432.554C145.918 440.709 143.628 448.665 139.578 455.751C136.526 461.127 132.808 466.096 128.511 470.54C126.406 471.965 124.301 473.358 122.195 474.718C122.181 474.724 122.167 474.738 122.152 474.744C122.051 474.809 121.949 474.874 121.855 474.94C121.42 475.22 120.986 475.5 120.555 475.777C120.555 475.777 121.024 476.007 120.769 475.904C120.694 475.872 120.614 475.843 120.539 475.812C121.324 469.378 120.555 462.85 118.297 456.775C116.039 450.699 112.358 445.254 107.562 440.894C102.755 436.601 97.0008 433.504 90.7693 431.857C91.075 431.42 91.4043 431.001 91.7471 430.59C94.1538 431.265 96.4962 432.152 98.7468 433.239C106.792 437.102 113.379 443.453 117.534 451.352C121.262 458.524 122.867 466.611 122.16 474.664C122.519 474.338 122.88 474.005 123.229 473.675C129.882 467.472 135.791 460.352 139.791 452.135C143.26 445.177 144.966 437.472 144.756 429.699C144.43 421.224 141.053 413.373 136.164 406.539C130.805 399.248 124.475 392.724 117.348 387.148C110.166 381.396 102.308 376.544 93.9474 372.701C93.7588 372.613 93.6113 372.456 93.5354 372.262C93.4594 372.068 93.4608 371.853 93.5393 371.66C93.595 371.487 93.7168 371.343 93.8781 371.26C93.9611 371.224 94.0511 371.207 94.1413 371.211C94.2316 371.215 94.3199 371.239 94.3996 371.282C95.4318 371.757 96.4568 372.239 97.4737 372.741C105.943 376.927 113.86 382.149 121.041 388.287C127.979 394.202 134.509 400.959 139.389 408.697Z" fill="white"/>
<path d="M91.5431 474.378H145.768C146.363 474.378 146.951 474.504 147.493 474.749C148.036 474.994 148.519 475.351 148.913 475.797C149.307 476.242 149.601 476.767 149.777 477.335C149.952 477.904 150.005 478.503 149.931 479.093L143.022 534.366C142.893 535.38 142.4 536.313 141.634 536.989C140.868 537.666 139.881 538.04 138.859 538.041H98.4523C97.4303 538.04 96.4438 537.666 95.6776 536.989C94.9114 536.313 94.418 535.38 94.2899 534.366L87.3806 479.093C87.3068 478.503 87.3594 477.904 87.5349 477.335C87.7103 476.767 88.0046 476.242 88.3983 475.797C88.7919 475.351 89.2759 474.994 89.8181 474.749C90.3603 474.504 90.9483 474.378 91.5431 474.378Z" fill="#F2F2F2"/>
<path d="M268.344 538.466C272.092 538.466 275.13 535.428 275.13 531.68C275.13 527.932 272.092 524.894 268.344 524.894C264.596 524.894 261.558 527.932 261.558 531.68C261.558 535.428 264.596 538.466 268.344 538.466Z" fill="#CCCCCC"/>
<path d="M697.008 538.466C700.756 538.466 703.795 535.428 703.795 531.68C703.795 527.932 700.756 524.894 697.008 524.894C693.26 524.894 690.222 527.932 690.222 531.68C690.222 535.428 693.26 538.466 697.008 538.466Z" fill="#CCCCCC"/>
<path d="M392.758 437.239H286.441C281.493 437.233 276.749 435.265 273.251 431.767C269.752 428.268 267.784 423.524 267.778 418.577V346.19C267.784 341.243 269.752 336.499 273.251 333C276.749 329.502 281.493 327.534 286.441 327.528H392.758C397.706 327.534 402.45 329.502 405.948 333C409.447 336.499 411.415 341.243 411.421 346.19V418.577C411.415 423.524 409.447 428.268 405.948 431.767C402.45 435.265 397.706 437.233 392.758 437.239Z" fill="#E6E6E6"/>
<path d="M535.835 437.804H429.517C424.57 437.799 419.826 435.831 416.327 432.332C412.829 428.833 410.861 424.09 410.855 419.142V346.756C410.861 341.808 412.829 337.065 416.327 333.566C419.826 330.067 424.57 328.099 429.517 328.094H535.835C540.783 328.099 545.526 330.067 549.025 333.566C552.524 337.065 554.492 341.808 554.497 346.756V419.142C554.492 424.09 552.524 428.833 549.025 432.332C545.526 435.831 540.783 437.799 535.835 437.804Z" fill="#E6E6E6"/>
<path d="M678.912 438.369H572.594C567.646 438.364 562.902 436.396 559.404 432.897C555.905 429.399 553.937 424.655 553.932 419.707V347.321C553.937 342.373 555.905 337.63 559.404 334.131C562.902 330.633 567.646 328.665 572.594 328.659H678.912C683.859 328.665 688.603 330.633 692.102 334.131C695.6 337.63 697.568 342.373 697.574 347.321V419.707C697.568 424.655 695.6 429.399 692.102 432.897C688.603 436.396 683.859 438.364 678.912 438.369Z" fill="#E6E6E6"/>
<path d="M719.629 433.28H251.378V531.114H719.629V433.28Z" fill="#E6E6E6"/>
<path d="M268.344 531.68H247.985C237.695 531.68 229.323 522.174 229.323 510.49V408.397H268.344V531.68Z" fill="#E6E6E6"/>
<path d="M717.367 531.68H697.008V392.562H736.029V507.769C736.029 520.953 727.657 531.68 717.367 531.68Z" fill="#E6E6E6"/>
<path d="M411.986 453.638H268.344V423.101C316.225 395.635 364.106 395.635 411.986 423.101V453.638Z" fill="#CCCCCC"/>
<path d="M555.063 454.204H411.421V423.666C459.302 396.201 507.182 396.201 555.063 423.666V454.204Z" fill="#CCCCCC"/>
<path d="M698.139 454.769H554.497V424.231C602.378 396.766 650.259 396.766 698.139 424.231V454.769Z" fill="#CCCCCC"/>
<path d="M240.634 434.411C259.061 434.411 273.999 419.472 273.999 401.045C273.999 382.618 259.061 367.68 240.634 367.68C222.206 367.68 207.268 382.618 207.268 401.045C207.268 419.472 222.206 434.411 240.634 434.411Z" fill="#CCCCCC"/>
<path d="M729.243 433.28C747.67 433.28 762.609 418.342 762.609 399.914C762.609 381.487 747.67 366.549 729.243 366.549C710.816 366.549 695.877 381.487 695.877 399.914C695.877 418.342 710.816 433.28 729.243 433.28Z" fill="#CCCCCC"/>
<path d="M630.957 334.549C631.034 335.085 631.069 335.627 631.062 336.169L671.056 363.734L681.722 358.684L691.445 373.785L673.433 384.558C671.978 385.428 670.279 385.803 668.593 385.626C666.907 385.449 665.323 384.73 664.081 383.577L623.577 345.984C621.567 346.549 619.432 346.49 617.457 345.813C615.482 345.135 613.76 343.873 612.52 342.194C611.28 340.514 610.581 338.497 610.515 336.41C610.45 334.323 611.021 332.266 612.153 330.512C613.285 328.757 614.925 327.39 616.853 326.59C618.782 325.79 620.908 325.596 622.949 326.035C624.991 326.473 626.85 327.522 628.281 329.043C629.711 330.564 630.645 332.484 630.957 334.549Z" fill="#FFB8B8"/>
<path d="M671.827 361.361C672.003 360.753 672.308 360.19 672.721 359.71C673.135 359.23 673.647 358.845 674.223 358.582L694.333 349.367C697.049 347.599 700.355 346.98 703.526 347.646C706.698 348.312 709.475 350.208 711.251 352.918C713.027 355.629 713.655 358.933 712.998 362.106C712.341 365.279 710.453 368.062 707.747 369.846L691.122 384.546C690.648 384.966 690.088 385.278 689.482 385.462C688.876 385.646 688.237 385.697 687.61 385.612C686.982 385.527 686.38 385.307 685.845 384.968C685.31 384.63 684.854 384.18 684.509 383.649L672.366 364.992C672.02 364.461 671.793 363.862 671.7 363.236C671.607 362.609 671.65 361.97 671.827 361.361Z" fill="#042558"/>
<path d="M630.453 336.345L630.252 336.36L629.703 328.774C629.528 326.349 627.959 324.487 626.2 324.614L614.538 325.458C612.779 325.585 609.541 327.795 609.716 330.22L609.858 332.174L612.728 371.837C612.903 374.262 616.425 375.983 618.185 375.855L629.846 375.012C631.606 374.884 632.89 372.815 632.714 370.391L630.643 341.76L630.844 341.745L630.453 336.345Z" fill="#3F3D56"/>
<path d="M629.027 328.854L632.034 370.409C632.165 372.22 631.206 373.765 629.892 373.86L618.175 374.708C616.861 374.803 615.689 373.412 615.558 371.601L612.551 330.046C612.42 328.235 613.379 326.69 614.693 326.595L616.115 326.492C616.016 326.862 616.038 327.253 616.176 327.61C616.314 327.967 616.561 328.271 616.883 328.478C617.018 328.543 617.167 328.572 617.317 328.562L623.997 328.079C624.622 328.033 625.077 327.298 625.014 326.437C625 326.239 624.958 326.043 624.889 325.857L626.411 325.747C627.725 325.652 628.896 327.043 629.027 328.854Z" fill="white"/>
<path d="M464.646 424.809L460.781 413.441L502.793 393.124L508.497 409.903L464.646 424.809Z" fill="#FFB8B8"/>
<path d="M454.611 431.455L442.15 394.798L442.613 394.64C444.487 394.003 446.468 393.742 448.443 393.87C450.418 393.999 452.348 394.515 454.123 395.389C455.899 396.264 457.484 397.479 458.79 398.967C460.095 400.454 461.095 402.184 461.732 404.058L469.343 426.447L454.611 431.455Z" fill="#2F2E41"/>
<path d="M631.387 432.923C622.376 433.429 613.392 431.548 605.341 427.47L555.939 393.863L498.255 415.223C496.724 415.744 495.052 415.664 493.578 415C492.103 414.336 490.935 413.137 490.309 411.646L487.482 404.846C486.837 403.316 486.819 401.594 487.431 400.051C488.042 398.508 489.235 397.267 490.753 396.594L545.863 371.846C552.479 368.885 559.901 368.243 566.928 370.024L643.434 389.52L663.657 413.535L663.432 413.845C653.505 427.542 641.729 432.175 631.387 432.923Z" fill="#2F2E41"/>
<path d="M693.869 332.569C707.155 332.569 717.925 321.799 717.925 308.513C717.925 295.228 707.155 284.458 693.869 284.458C680.584 284.458 669.813 295.228 669.813 308.513C669.813 321.799 680.584 332.569 693.869 332.569Z" fill="#FFB8B8"/>
<path d="M669.176 424.243L630.459 395.431L656.863 376.665C656.108 374.235 652.758 360.338 671.081 350.866C676.881 347.868 681.059 345.287 683.501 343.196C686.965 340.208 691.402 338.589 695.977 338.645C698.861 338.691 701.694 339.407 704.253 340.737C706.812 342.067 709.026 343.975 710.72 346.308C712.415 348.642 713.543 351.338 714.015 354.183C714.487 357.028 714.291 359.944 713.441 362.7C709.621 375.12 703.535 391.576 696.238 399.447C687.983 408.339 679.032 416.557 669.468 424.023L669.176 424.243Z" fill="#042558"/>
<path d="M470.785 434.883L466.92 423.514L508.932 403.198L514.636 419.976L470.785 434.883Z" fill="#FFB8B8"/>
<path d="M460.75 441.529L448.289 404.872L448.752 404.714C450.626 404.077 452.607 403.815 454.582 403.944C456.557 404.072 458.487 404.589 460.262 405.463C462.037 406.338 463.623 407.553 464.929 409.04C466.234 410.528 467.234 412.258 467.871 414.131L475.482 436.521L460.75 441.529Z" fill="#2F2E41"/>
<path d="M637.526 442.997C628.515 443.503 619.531 441.622 611.48 437.544L562.078 403.936L504.394 425.296C502.863 425.817 501.191 425.738 499.717 425.074C498.242 424.41 497.074 423.211 496.448 421.719L493.621 414.919C492.976 413.39 492.958 411.668 493.57 410.125C494.181 408.582 495.374 407.34 496.892 406.668L552.002 381.919C558.618 378.959 566.04 378.317 573.067 380.097L649.573 399.593L669.796 423.609L669.571 423.919C659.644 437.616 647.868 442.248 637.526 442.997Z" fill="#2F2E41"/>
<path d="M626.422 363.405C626.722 363.857 626.985 364.332 627.21 364.825L675.155 372.612L682.632 363.482L697.885 372.965L686.219 390.413C685.277 391.823 683.903 392.889 682.303 393.451C680.703 394.013 678.964 394.041 677.347 393.53L624.648 376.899C623.074 378.271 621.12 379.131 619.045 379.364C616.97 379.598 614.874 379.195 613.034 378.208C611.194 377.221 609.698 375.697 608.745 373.839C607.793 371.982 607.428 369.878 607.7 367.808C607.972 365.738 608.868 363.8 610.269 362.251C611.669 360.703 613.508 359.618 615.54 359.14C617.573 358.662 619.702 358.814 621.646 359.576C623.59 360.338 625.256 361.674 626.422 363.405Z" fill="#FFB8B8"/>
<path d="M674.836 370.138C674.735 369.513 674.769 368.873 674.938 368.263C675.106 367.652 675.404 367.085 675.811 366.6L690.04 349.663C691.737 346.902 694.46 344.927 697.611 344.171C700.762 343.415 704.084 343.939 706.849 345.628C709.614 347.318 711.597 350.035 712.362 353.184C713.127 356.332 712.612 359.656 710.93 362.426L702.2 382.829C701.951 383.412 701.579 383.933 701.11 384.359C700.641 384.785 700.086 385.104 699.482 385.296C698.879 385.488 698.241 385.547 697.612 385.47C696.983 385.393 696.379 385.181 695.839 384.85L676.878 373.188C676.338 372.857 675.876 372.413 675.524 371.886C675.172 371.36 674.937 370.764 674.836 370.138Z" fill="#042558"/>
<path d="M687.438 335.007C694.428 326.013 698.304 314.991 698.482 303.602C695.192 306.047 691.467 307.846 687.507 308.903C683.303 310.023 678.682 310.248 674.724 308.445C669.152 305.907 665.857 299.434 666.489 293.344C667.121 287.255 671.33 281.815 676.809 279.084C682.418 276.461 688.816 276.073 694.701 278.001C697.814 275.349 701.626 273.652 705.679 273.111C709.732 272.57 713.856 273.209 717.555 274.951C726.07 279.13 730.779 288.808 731.596 298.258C732.413 307.708 729.985 317.104 727.578 326.278L727.306 327.315C726.556 330.171 724.378 335.652 724.378 335.652C724.378 335.652 711.728 333.155 706.702 331.555C699.417 334.188 687.438 335.007 687.438 335.007Z" fill="#2F2E41"/>
<path d="M627.136 337.312L616.829 338.058C616.569 338.076 616.314 337.992 616.117 337.822C615.921 337.652 615.8 337.411 615.781 337.152C615.762 336.892 615.847 336.637 616.017 336.44C616.187 336.244 616.428 336.123 616.687 336.104L626.995 335.358C627.123 335.349 627.252 335.364 627.374 335.405C627.497 335.445 627.61 335.509 627.707 335.593C627.805 335.678 627.885 335.78 627.943 335.895C628 336.01 628.035 336.136 628.044 336.264C628.054 336.393 628.037 336.522 627.997 336.644C627.956 336.766 627.892 336.879 627.807 336.976C627.723 337.074 627.62 337.153 627.505 337.211C627.39 337.269 627.264 337.303 627.136 337.312Z" fill="#3F3D56"/>
<path d="M627.49 342.197L617.182 342.942C617.054 342.952 616.925 342.936 616.802 342.896C616.68 342.855 616.567 342.791 616.469 342.707C616.372 342.623 616.292 342.52 616.234 342.405C616.176 342.29 616.142 342.165 616.132 342.036C616.123 341.908 616.139 341.779 616.18 341.657C616.221 341.534 616.285 341.421 616.369 341.324C616.454 341.227 616.556 341.147 616.672 341.089C616.787 341.032 616.912 340.998 617.041 340.989L627.348 340.243C627.607 340.224 627.863 340.309 628.06 340.479C628.256 340.649 628.377 340.89 628.396 341.149C628.414 341.408 628.33 341.664 628.16 341.86C627.99 342.057 627.749 342.178 627.49 342.197Z" fill="#3F3D56"/>
<path d="M627.843 347.081L617.536 347.827C617.277 347.845 617.022 347.76 616.826 347.59C616.63 347.42 616.509 347.179 616.49 346.92C616.472 346.662 616.556 346.406 616.726 346.21C616.895 346.013 617.136 345.892 617.394 345.873L627.702 345.127C627.961 345.108 628.217 345.193 628.413 345.363C628.61 345.533 628.73 345.774 628.749 346.033C628.768 346.292 628.683 346.548 628.513 346.745C628.343 346.941 628.102 347.062 627.843 347.081Z" fill="#3F3D56"/>
<path d="M926.391 540H40.9794C40.7197 540 40.4705 539.897 40.2869 539.713C40.1032 539.529 40 539.28 40 539.02C40 538.761 40.1032 538.512 40.2869 538.328C40.4705 538.144 40.7197 538.041 40.9794 538.041H926.391C926.65 538.041 926.899 538.144 927.083 538.328C927.267 538.512 927.37 538.761 927.37 539.02C927.37 539.28 927.267 539.529 927.083 539.713C926.899 539.897 926.65 540 926.391 540Z" fill="#3F3D56"/>
<path d="M510.893 213.849H411.97C409.633 213.846 407.393 212.917 405.74 211.264C404.087 209.612 403.158 207.371 403.155 205.034V119.824C403.158 117.487 404.087 115.246 405.74 113.594C407.393 111.941 409.633 111.011 411.97 111.009H510.893C513.23 111.011 515.471 111.941 517.123 113.594C518.776 115.246 519.706 117.487 519.708 119.824V205.034C519.706 207.371 518.776 209.612 517.123 211.264C515.471 212.917 513.23 213.846 510.893 213.849ZM411.97 112.968C410.152 112.97 408.41 113.693 407.124 114.978C405.839 116.263 405.116 118.006 405.114 119.824V205.034C405.116 206.852 405.839 208.595 407.124 209.88C408.41 211.165 410.152 211.888 411.97 211.89H510.893C512.711 211.888 514.454 211.165 515.739 209.88C517.024 208.595 517.747 206.852 517.749 205.034V119.824C517.747 118.006 517.024 116.263 515.739 114.978C514.454 113.693 512.711 112.97 510.893 112.968H411.97Z" fill="#F2F2F2"/>
<path d="M496.43 200.627H426.433C424.226 200.624 422.11 199.746 420.549 198.186C418.989 196.625 418.111 194.509 418.108 192.301V132.556C418.111 130.349 418.989 128.233 420.549 126.672C422.11 125.111 424.226 124.233 426.433 124.231H496.43C498.637 124.233 500.753 125.111 502.314 126.672C503.875 128.233 504.753 130.349 504.755 132.556V192.301C504.753 194.509 503.875 196.625 502.314 198.186C500.753 199.746 498.637 200.624 496.43 200.627Z" fill="#E6E6E6"/>
<path d="M461.921 98.2763C464.626 98.2763 466.819 96.0837 466.819 93.3791C466.819 90.6745 464.626 88.4819 461.921 88.4819C459.217 88.4819 457.024 90.6745 457.024 93.3791C457.024 96.0837 459.217 98.2763 461.921 98.2763Z" fill="#F2F2F2"/>
<path d="M472.218 112.492L461.924 95.29L451.689 112.489L450.005 111.488L461.919 91.4683L473.898 111.485L472.218 112.492Z" fill="#F2F2F2"/>
<path d="M473.185 155.573C473.182 154.091 473.02 152.613 472.7 151.166H458.004C456.965 151.166 455.968 151.578 455.233 152.313C454.499 153.048 454.086 154.044 454.086 155.083V176.067C459.271 175.699 464.124 173.38 467.668 169.578C471.211 165.775 473.183 160.771 473.185 155.573Z" fill="#042558"/>
<path d="M452.617 177.12C448.553 177.122 444.571 175.974 441.131 173.809C437.692 171.644 434.935 168.551 433.178 164.886C431.422 161.221 430.737 157.134 431.204 153.097C431.671 149.06 433.27 145.237 435.817 142.07C438.364 138.903 441.755 136.521 445.598 135.198C449.441 133.876 453.579 133.667 457.536 134.596C461.492 135.525 465.105 137.554 467.958 140.449C470.81 143.344 472.786 146.987 473.656 150.956L473.916 152.145H458.004C457.225 152.146 456.478 152.456 455.927 153.006C455.376 153.557 455.066 154.304 455.065 155.083V176.979L453.985 177.056C453.532 177.089 453.078 177.12 452.617 177.12ZM452.617 135.984C447.422 135.984 442.439 138.048 438.765 141.722C435.092 145.395 433.028 150.378 433.028 155.573C433.028 160.768 435.092 165.751 438.765 169.424C442.439 173.098 447.422 175.162 452.617 175.162C452.781 175.162 452.944 175.157 453.107 175.149V155.083C453.108 153.785 453.624 152.54 454.543 151.622C455.461 150.704 456.705 150.188 458.004 150.186H471.443C470.257 146.105 467.782 142.517 464.389 139.957C460.996 137.398 456.867 136.004 452.617 135.984Z" fill="white"/>
<path d="M481.51 183.487H458.004C456.705 183.485 455.461 182.969 454.543 182.051C453.624 181.133 453.108 179.888 453.107 178.59V175.154L454.017 175.09C456.821 174.896 459.55 174.1 462.018 172.755C464.486 171.41 466.635 169.548 468.318 167.297C470.001 165.046 471.178 162.458 471.769 159.71C472.36 156.962 472.351 154.119 471.743 151.375L471.483 150.186H481.51C482.809 150.188 484.053 150.704 484.971 151.622C485.889 152.54 486.406 153.785 486.407 155.083V178.59C486.406 179.888 485.889 181.133 484.971 182.051C484.053 182.969 482.809 183.485 481.51 183.487ZM455.065 176.96V178.59C455.066 179.369 455.376 180.115 455.927 180.666C456.478 181.217 457.225 181.527 458.004 181.528H481.51C482.289 181.527 483.036 181.217 483.587 180.666C484.138 180.115 484.448 179.369 484.449 178.59V155.083C484.448 154.304 484.138 153.557 483.587 153.006C483.036 152.456 482.289 152.146 481.51 152.145H473.883C474.069 153.278 474.163 154.425 474.164 155.573C474.146 160.856 472.193 165.95 468.674 169.891C465.154 173.832 460.313 176.347 455.065 176.96Z" fill="white"/>
</svg>
