<svg width="835" height="580" viewBox="0 0 835 580" fill="none" xmlns="http://www.w3.org/2000/svg">
<rect width="834.77" height="580" rx="20" fill="#010F21" fill-opacity="0.6"/>
<path d="M202.036 332.109C166.747 297.37 151.843 261.128 160.067 230.061C170.622 190.193 217.511 162.627 288.711 154.432L288.974 156.719C218.765 164.799 172.591 191.746 162.292 230.65C154.288 260.884 168.976 296.335 203.651 330.47L202.036 332.109Z" fill="#F0F0F0"/>
<path d="M542.511 455.424C498.469 455.424 450.609 448.879 403.07 436.293C344.283 420.73 290.381 397.239 247.192 368.358L248.471 366.446C291.452 395.186 345.115 418.57 403.659 434.068C456.565 448.075 509.867 454.565 557.785 452.852L557.868 455.152C552.807 455.334 547.689 455.424 542.511 455.424Z" fill="#F0F0F0"/>
<path d="M643.55 440.95L642.813 438.77C682.202 425.452 706.839 403.998 714.06 376.726C723.238 342.056 703.298 301.824 657.914 263.441C612.298 224.863 546.52 192.853 472.692 173.308L473.281 171.083C547.431 190.713 613.53 222.889 659.4 261.684C705.501 300.673 725.703 341.738 716.285 377.315C708.858 405.369 683.706 427.373 643.55 440.95Z" fill="#F0F0F0"/>
<path d="M281.859 456.385C195.318 418.003 128.632 368.207 94.0857 316.17L96.0029 314.896C130.31 366.574 196.646 416.075 282.792 454.282L281.859 456.385Z" fill="#F0F0F0"/>
<path d="M586.129 522.879C577.202 522.879 568.124 522.68 558.893 522.281L558.991 519.982C627.881 522.965 688.663 514.72 734.779 496.136L735.64 498.271C695.411 514.481 644.138 522.879 586.129 522.879Z" fill="#F0F0F0"/>
<path d="M535.917 156.496C521.613 151.839 506.901 147.503 492.188 143.608C407.522 121.194 324.295 113.236 251.501 120.598L251.269 118.308C324.335 110.921 407.847 118.899 492.777 141.383C507.531 145.289 522.285 149.638 536.629 154.308L535.917 156.496Z" fill="#F0F0F0"/>
<path d="M147.95 335.562C112.661 300.823 97.7569 264.581 105.981 233.513C116.536 193.645 163.425 166.079 234.625 157.885L234.888 160.172C164.679 168.252 118.505 195.199 108.206 234.102C100.202 264.337 114.89 299.787 149.565 333.922L147.95 335.562Z" fill="#F0F0F0"/>
<path d="M488.426 458.876C444.383 458.876 396.523 452.331 348.985 439.746C290.197 424.182 236.295 400.691 193.106 371.81L194.385 369.898C237.366 398.638 291.029 422.022 349.574 437.52C402.479 451.527 455.782 458.017 503.699 456.305L503.782 458.604C498.722 458.786 493.603 458.877 488.426 458.876Z" fill="#F0F0F0"/>
<path d="M589.464 444.402L588.727 442.222C628.117 428.904 652.754 407.45 659.974 380.178C669.152 345.508 649.213 305.277 603.828 266.893C558.213 228.315 492.434 196.305 418.607 176.761L419.196 174.535C493.346 194.166 559.445 226.342 605.314 265.136C651.415 304.125 671.618 345.19 662.199 380.767C654.772 408.821 629.621 430.826 589.464 444.402Z" fill="#F0F0F0"/>
<path d="M227.773 459.838C141.232 421.456 74.5463 371.66 40 319.622L41.9172 318.349C76.2248 370.026 142.561 419.527 228.706 457.734L227.773 459.838Z" fill="#F0F0F0"/>
<path d="M532.043 526.332C523.117 526.332 514.038 526.132 504.807 525.734L504.906 523.434C573.795 526.417 634.578 518.173 680.693 499.589L681.554 501.724C641.326 517.933 590.052 526.332 532.043 526.332Z" fill="#F0F0F0"/>
<path d="M481.831 159.949C467.528 155.292 452.815 150.955 438.103 147.06C353.437 124.646 270.21 116.688 197.415 124.051L197.184 121.76C270.25 114.374 353.762 122.351 438.691 144.835C453.446 148.741 468.2 153.09 482.544 157.761L481.831 159.949Z" fill="#F0F0F0"/>
<path d="M79.2282 273.917C95.7672 255.373 122.15 244.071 146.058 250.837C124.002 266.446 108.177 289.353 101.384 315.507C98.8012 325.603 96.9793 337.1 88.5832 343.273C83.359 347.114 76.4368 348.032 70.0121 347.157C63.5872 346.282 57.5122 343.783 51.5192 341.308L49.9065 341.447C54.543 317.036 62.6892 292.46 79.2282 273.917Z" fill="#F2F2F2"/>
<path d="M145.985 251.353C125.996 256.193 108.04 267.208 94.6676 282.834C91.7291 286.147 89.3312 289.902 87.5621 293.962C85.9665 297.972 85.4739 302.336 86.1355 306.601C86.6725 310.59 87.6837 314.608 87.2416 318.658C86.9845 320.728 86.2929 322.72 85.2119 324.504C84.131 326.288 82.6852 327.823 80.9694 329.009C76.7709 332.074 71.7213 333.449 66.7364 334.621C61.2017 335.923 55.4323 337.187 50.9206 340.866C50.3739 341.311 49.7144 340.437 50.2602 339.992C58.1097 333.593 69.0188 334.414 77.7036 329.766C81.7561 327.597 85.1795 324.194 86.0118 319.523C86.7397 315.44 85.7005 311.295 85.1219 307.261C84.4155 303.11 84.7363 298.849 86.0563 294.85C87.613 290.714 89.8623 286.872 92.7078 283.491C98.9926 275.775 106.451 269.095 114.811 263.696C124.318 257.482 134.817 252.939 145.856 250.265C146.539 250.1 146.664 251.189 145.985 251.353Z" fill="white"/>
<path d="M98.6773 277.549C96.3602 274.95 95.0426 271.611 94.9597 268.13C94.8769 264.649 96.0342 261.251 98.225 258.544C98.6702 257.998 99.5398 258.664 99.094 259.211C97.0493 261.728 95.9715 264.893 96.0553 268.135C96.1391 271.376 97.3789 274.481 99.5509 276.889C100.022 277.413 99.146 278.07 98.6773 277.549Z" fill="white"/>
<path d="M85.5967 304.615C92.6995 305.086 99.7193 302.864 105.256 298.39C105.804 297.946 106.464 298.82 105.916 299.263C100.146 303.908 92.8362 306.206 85.4459 305.699C84.7415 305.65 84.8961 304.566 85.5967 304.615Z" fill="white"/>
<path d="M124.564 258.913C125.251 260.105 126.223 261.109 127.394 261.833C128.564 262.557 129.896 262.979 131.27 263.06C131.975 263.1 131.819 264.185 131.119 264.145C129.602 264.048 128.131 263.58 126.836 262.783C125.541 261.986 124.461 260.884 123.69 259.573C123.607 259.456 123.572 259.311 123.592 259.169C123.612 259.026 123.685 258.897 123.797 258.806C123.913 258.719 124.059 258.682 124.202 258.702C124.346 258.722 124.476 258.798 124.564 258.913Z" fill="white"/>
<path d="M179.997 327.817C179.556 327.804 179.115 327.792 178.669 327.787C172.743 327.651 166.816 327.997 160.947 328.821C160.492 328.877 160.032 328.942 159.579 329.011C145.459 331.147 131.858 335.886 119.468 342.987C114.54 345.818 109.834 349.019 105.392 352.563C99.2578 357.458 92.9959 363.253 85.814 365.762C85.0676 366.032 84.3053 366.256 83.5313 366.432L50.202 343.404C50.1525 343.314 50.0974 343.231 50.0476 343.14L48.6748 342.281C48.8911 342.083 49.1198 341.881 49.3361 341.682C49.4611 341.566 49.5936 341.456 49.7186 341.34C49.8043 341.264 49.8904 341.189 49.9634 341.116C49.9918 341.091 50.0206 341.065 50.0438 341.048C50.1168 340.975 50.1924 340.915 50.2601 340.849C51.5351 339.719 52.8202 338.596 54.1155 337.48C54.1208 337.472 54.1208 337.472 54.1335 337.47C64.0245 328.992 74.7103 321.265 86.2293 315.405C86.5759 315.229 86.9274 315.045 87.2892 314.879C92.4961 312.267 97.9077 310.084 103.47 308.354C106.519 307.416 109.613 306.633 112.741 306.008C120.827 304.409 129.113 304.091 137.297 305.067C153.612 307.015 169.122 314.158 179.234 326.84C179.492 327.165 179.744 327.484 179.997 327.817Z" fill="#F2F2F2"/>
<path d="M179.63 328.188C160.755 320.018 139.787 318.002 119.702 322.427C115.361 323.303 111.185 324.858 107.329 327.034C103.64 329.275 100.62 332.463 98.58 336.267C96.607 339.775 94.9952 343.592 92.2038 346.56C90.7524 348.058 89.0008 349.232 87.0638 350.005C85.1268 350.779 83.0482 351.134 80.9643 351.047C75.7662 350.968 70.9069 349.025 66.2209 346.96C61.018 344.667 55.6502 342.203 49.8333 342.423C49.1285 342.45 49.1283 341.355 49.832 341.328C59.9523 340.944 68.168 348.168 77.9008 349.686C82.4424 350.394 87.2248 349.738 90.7011 346.51C93.7409 343.688 95.4064 339.753 97.3734 336.183C99.3086 332.444 102.13 329.235 105.591 326.837C109.325 324.471 113.434 322.758 117.742 321.771C127.405 319.395 137.382 318.552 147.307 319.274C158.639 320.036 169.758 322.731 180.181 327.242C180.826 327.521 180.27 328.466 179.63 328.188Z" fill="white"/>
<path d="M126.085 320.621C125.8 317.151 126.758 313.692 128.788 310.862C130.818 308.033 133.787 306.017 137.166 305.175C137.851 305.007 138.144 306.062 137.459 306.23C134.311 307.009 131.545 308.887 129.66 311.525C127.775 314.164 126.896 317.39 127.18 320.62C127.241 321.322 126.146 321.319 126.085 320.621Z" fill="white"/>
<path d="M99.346 334.356C104.733 339.009 111.676 341.461 118.791 341.222C119.496 341.198 119.496 342.293 118.792 342.317C111.388 342.552 104.168 339.986 98.5726 335.131C98.0396 334.668 98.8159 333.895 99.346 334.356Z" fill="white"/>
<path d="M157.974 321.327C157.805 322.693 157.977 324.079 158.476 325.362C158.975 326.645 159.784 327.783 160.832 328.676C161.371 329.132 160.594 329.904 160.058 329.451C158.906 328.46 158.013 327.201 157.459 325.785C156.905 324.369 156.706 322.839 156.879 321.328C156.884 321.184 156.943 321.048 157.044 320.946C157.146 320.844 157.282 320.785 157.426 320.78C157.571 320.78 157.71 320.838 157.813 320.94C157.915 321.043 157.973 321.182 157.974 321.327Z" fill="white"/>
<path d="M727.286 425.928C717.941 402.905 696.892 383.393 672.101 381.729C687.628 403.843 694.833 430.737 692.44 457.652C691.48 468.029 689.331 479.47 695.164 488.106C698.794 493.479 705.005 496.67 711.35 498.005C717.695 499.341 724.256 499.029 730.733 498.712L732.205 499.386C736.043 474.836 736.63 448.952 727.286 425.928Z" fill="#F2F2F2"/>
<path d="M671.996 382.24C689.195 393.517 702.405 409.926 709.747 429.138C711.401 433.246 712.398 437.588 712.699 442.006C712.854 446.319 711.852 450.595 709.795 454.39C707.949 457.966 705.646 461.411 704.701 465.374C704.247 467.41 704.229 469.519 704.648 471.562C705.066 473.605 705.912 475.537 707.13 477.23C710.053 481.529 714.347 484.52 718.648 487.3C723.423 490.386 728.432 493.516 731.445 498.497C731.81 499.101 732.725 498.499 732.361 497.896C727.119 489.231 716.568 486.338 709.951 479.041C706.863 475.636 704.783 471.28 705.568 466.602C706.255 462.511 708.627 458.957 710.528 455.352C712.588 451.68 713.718 447.559 713.819 443.349C713.743 438.93 712.916 434.556 711.372 430.415C708.047 421.036 703.267 412.238 697.208 404.343C690.343 395.295 681.981 387.488 672.483 381.259C671.895 380.874 671.412 381.857 671.996 382.24Z" fill="white"/>
<path d="M707.747 422.813C710.803 421.143 713.166 418.442 714.414 415.191C715.662 411.94 715.714 408.351 714.56 405.065C714.325 404.401 713.282 404.736 713.518 405.401C714.598 408.459 714.549 411.802 713.381 414.827C712.212 417.852 710.001 420.359 707.146 421.897C706.526 422.232 707.131 423.146 707.747 422.813Z" fill="white"/>
<path d="M710.97 452.7C704.122 450.757 698.258 446.304 694.547 440.23C694.179 439.627 693.264 440.229 693.631 440.83C697.505 447.145 703.617 451.766 710.748 453.772C711.427 453.963 711.646 452.89 710.97 452.7Z" fill="white"/>
<path d="M689.63 396.56C688.582 397.452 687.329 398.07 685.983 398.359C684.638 398.647 683.241 398.597 681.92 398.212C681.243 398.013 681.025 399.086 681.697 399.284C683.159 399.703 684.701 399.756 686.189 399.441C687.676 399.126 689.064 398.451 690.231 397.476C690.348 397.393 690.43 397.268 690.459 397.128C690.489 396.987 690.463 396.84 690.388 396.717C690.308 396.596 690.183 396.512 690.041 396.483C689.899 396.453 689.752 396.481 689.63 396.56Z" fill="white"/>
<path d="M614.264 442.824C614.683 442.961 615.102 443.097 615.524 443.242C621.151 445.106 626.617 447.424 631.868 450.173C632.277 450.379 632.689 450.594 633.092 450.811C645.673 457.569 656.89 466.604 666.173 477.456C669.863 481.778 673.219 486.374 676.211 491.205C680.344 497.877 684.293 505.44 690.214 510.217C690.826 510.722 691.469 511.189 692.139 511.615L731.269 501.129C731.346 501.061 731.426 501.001 731.503 500.932L733.085 500.585C732.948 500.325 732.8 500.058 732.663 499.798C732.584 499.647 732.497 499.499 732.418 499.347C732.363 499.247 732.307 499.148 732.263 499.054C732.244 499.021 732.226 498.988 732.21 498.963C732.166 498.87 732.115 498.788 732.073 498.703C731.252 497.21 730.419 495.721 729.574 494.234C729.572 494.225 729.572 494.225 729.561 494.219C723.095 482.909 715.627 472.04 706.748 462.65C706.481 462.368 706.212 462.076 705.926 461.799C701.901 457.588 697.537 453.714 692.88 450.214C690.324 448.306 687.673 446.529 684.937 444.889C677.859 440.665 670.161 437.581 662.125 435.749C646.105 432.1 629.096 433.615 615.311 442.161C614.958 442.38 614.614 442.596 614.264 442.824Z" fill="#F2F2F2"/>
<path d="M614.485 443.297C635.007 441.946 655.433 447.095 672.863 458.013C676.656 460.297 680.067 463.165 682.967 466.511C685.688 469.861 687.462 473.879 688.104 478.147C688.783 482.114 689.018 486.251 690.65 489.984C691.513 491.883 692.769 493.577 694.333 494.957C695.897 496.336 697.736 497.369 699.727 497.989C704.65 499.66 709.879 499.464 714.987 499.094C720.658 498.683 726.541 498.166 731.946 500.329C732.601 500.591 732.969 499.56 732.315 499.298C722.912 495.535 712.747 499.578 703.07 497.736C698.555 496.876 694.271 494.651 692.082 490.443C690.167 486.763 689.921 482.497 689.269 478.474C688.703 474.301 687.124 470.331 684.67 466.909C681.949 463.426 678.655 460.432 674.929 458.055C666.627 452.568 657.513 448.421 647.922 445.766C636.994 442.674 625.616 441.475 614.283 442.221C613.582 442.267 613.788 443.343 614.485 443.297Z" fill="white"/>
<path d="M667.457 454.167C668.892 450.994 669.152 447.415 668.192 444.068C667.231 440.72 665.112 437.824 662.212 435.895C661.624 435.507 660.993 436.402 661.582 436.791C664.285 438.582 666.259 441.28 667.147 444.399C668.036 447.518 667.78 450.851 666.426 453.798C666.133 454.439 667.165 454.804 667.457 454.167Z" fill="white"/>
<path d="M688.024 476.09C681.387 478.662 674.024 478.637 667.403 476.021C666.748 475.761 666.379 476.793 667.034 477.052C673.928 479.762 681.591 479.771 688.492 477.08C689.15 476.823 688.679 475.834 688.024 476.09Z" fill="white"/>
<path d="M637.186 444.114C636.887 445.457 636.258 446.705 635.358 447.745C634.457 448.786 633.311 449.586 632.025 450.075C631.364 450.324 631.836 451.312 632.493 451.065C633.912 450.519 635.175 449.633 636.173 448.486C637.171 447.338 637.873 445.964 638.217 444.483C638.261 444.346 638.252 444.197 638.19 444.067C638.129 443.937 638.02 443.836 637.886 443.783C637.75 443.735 637.599 443.742 637.468 443.804C637.337 443.866 637.236 443.977 637.186 444.114Z" fill="white"/>
<path d="M545.998 504.327C551.082 504.327 555.204 500.206 555.204 495.121C555.204 490.037 551.082 485.915 545.998 485.915C540.913 485.915 536.792 490.037 536.792 495.121C536.792 500.206 540.913 504.327 545.998 504.327Z" fill="#FD6584"/>
<path d="M578.607 347.526C583.692 347.526 587.813 343.405 587.813 338.32C587.813 333.236 583.692 329.114 578.607 329.114C573.523 329.114 569.401 333.236 569.401 338.32C569.401 343.405 573.523 347.526 578.607 347.526Z" fill="#E6E6E6"/>
<path d="M407.304 92.1658C412.389 92.1658 416.51 88.0441 416.51 82.9597C416.51 77.8753 412.389 73.7535 407.304 73.7535C402.22 73.7535 398.098 77.8753 398.098 82.9597C398.098 88.0441 402.22 92.1658 407.304 92.1658Z" fill="#E6E6E6"/>
<path d="M214.386 436.106C214.386 438.449 214.463 440.793 214.627 443.117C214.801 445.894 215.1 448.653 215.505 451.391C216.866 460.613 219.468 469.609 223.239 478.134C223.432 478.558 223.625 478.983 223.818 479.407L224.107 480.044C224.204 480.256 224.31 480.468 224.406 480.67C224.541 480.95 224.666 481.22 224.801 481.49C224.965 481.828 225.129 482.165 225.303 482.503C225.322 482.541 225.342 482.59 225.37 482.638C225.515 482.927 225.65 483.207 225.804 483.496C225.833 483.559 225.865 483.62 225.901 483.679C226.065 484.007 226.238 484.345 226.412 484.673C226.605 485.02 226.788 485.377 226.981 485.724C227.444 486.582 227.926 487.431 228.418 488.28C228.563 488.53 228.707 488.781 228.862 489.032C228.997 489.263 229.132 489.495 229.276 489.726C229.373 489.88 229.469 490.044 229.566 490.199C229.72 490.459 229.874 490.71 230.038 490.97C230.395 491.539 230.761 492.108 231.118 492.677H231.128C231.292 492.938 231.465 493.198 231.639 493.449V493.458C232.15 494.23 232.681 495.001 233.211 495.763L233.215 495.764L233.218 495.766L233.22 495.769L233.221 495.773C233.645 496.39 234.089 496.988 234.522 497.586V497.596C234.812 497.972 235.091 498.357 235.381 498.734C235.612 499.042 235.853 499.36 236.094 499.669C236.143 499.736 236.201 499.794 236.249 499.862V499.872C236.316 499.958 236.384 500.035 236.451 500.122C237.474 501.434 238.528 502.716 239.614 503.97L239.788 504.173C239.846 504.24 239.913 504.308 239.971 504.385C240.068 504.491 240.155 504.597 240.251 504.703C240.338 504.809 240.434 504.915 240.531 505.021C246.195 511.402 252.617 517.066 259.654 521.889C260.59 522.535 261.545 523.162 262.499 523.769C262.741 523.924 262.982 524.078 263.223 524.222C263.29 524.271 263.367 524.319 263.435 524.367C263.57 524.444 263.695 524.521 263.83 524.608C263.956 524.685 264.081 524.763 264.216 524.84C264.727 525.158 265.248 525.467 265.769 525.775C265.894 525.852 266.029 525.929 266.164 526.007C266.289 526.074 266.424 526.151 266.559 526.228C266.559 526.238 266.559 526.238 266.569 526.238H266.579V526.248H266.588C267.235 526.624 267.89 526.99 268.556 527.347C268.913 527.54 269.279 527.743 269.646 527.926C270.475 528.379 271.314 528.813 272.153 529.228C272.452 529.372 272.761 529.517 273.059 529.671C273.31 529.787 273.561 529.912 273.812 530.028C273.889 530.067 273.956 530.096 274.024 530.134C274.236 530.231 274.439 530.327 274.651 530.424C274.882 530.53 275.114 530.636 275.335 530.742C275.596 530.858 275.847 530.973 276.107 531.079C277.071 531.513 278.045 531.928 279.019 532.323C282.51 533.754 286.077 534.991 289.705 536.027C289.869 536.075 290.042 536.123 290.216 536.171C291.769 536.605 293.331 537.001 294.903 537.358C297.651 537.994 300.426 538.515 303.226 538.92H303.245C303.582 538.968 303.91 539.016 304.248 539.065C304.277 539.065 304.306 539.074 304.344 539.074C304.344 539.084 304.344 539.084 304.354 539.074C304.72 539.122 305.096 539.171 305.463 539.219C305.488 539.226 305.514 539.229 305.54 539.228C305.887 539.277 306.244 539.315 306.591 539.354C306.967 539.392 307.343 539.431 307.72 539.47C308.009 539.498 308.298 539.527 308.588 539.556C308.612 539.565 308.639 539.568 308.665 539.566C308.925 539.585 309.186 539.614 309.446 539.634H309.484C309.706 539.653 309.938 539.672 310.16 539.691C312.85 539.904 315.55 540 318.289 540C321.25 540 324.191 539.884 327.094 539.634H327.123C327.75 539.576 328.367 539.518 328.984 539.46C329.148 539.441 329.303 539.431 329.467 539.412C329.496 539.412 329.534 539.402 329.563 539.402C329.611 539.392 329.659 539.392 329.717 539.383C329.743 539.384 329.769 539.381 329.794 539.373C330.007 539.354 330.219 539.325 330.441 539.306L331.164 539.219C331.405 539.19 331.646 539.151 331.887 539.122C331.945 539.113 331.993 539.113 332.051 539.103C332.225 539.084 332.398 539.055 332.572 539.026C332.659 539.016 332.745 539.007 332.823 538.997C332.996 538.968 333.16 538.949 333.334 538.92H333.343C338.635 538.158 343.859 536.981 348.967 535.4C349.237 535.313 349.507 535.236 349.777 535.149C349.786 535.149 349.796 535.139 349.806 535.139C349.883 535.111 349.969 535.091 350.047 535.062C350.77 534.831 351.484 534.59 352.197 534.339C353.181 534.011 354.155 533.654 355.129 533.288C355.389 533.182 355.65 533.085 355.91 532.979C356.441 532.777 356.961 532.565 357.482 532.352C358.369 531.996 359.257 531.619 360.134 531.234C360.954 530.867 361.764 530.501 362.574 530.115C362.593 530.105 362.622 530.105 362.642 530.086C362.825 529.999 363.008 529.912 363.182 529.826H363.191C367.632 527.694 371.916 525.248 376.008 522.506C377.32 521.628 378.612 520.722 379.885 519.786C380.907 519.024 381.91 518.253 382.913 517.462C387.861 513.526 392.441 509.149 396.598 504.385V504.375C396.897 504.047 397.176 503.71 397.466 503.372C397.514 503.324 397.552 503.276 397.591 503.237C397.774 503.015 397.948 502.803 398.131 502.591V502.582C398.372 502.302 398.613 502.012 398.845 501.723C398.903 501.656 398.951 501.598 398.999 501.54V501.53C399.192 501.299 399.375 501.067 399.568 500.826C399.664 500.711 399.751 500.595 399.848 500.479V500.469C400.417 499.756 400.966 499.042 401.516 498.309C401.661 498.116 401.805 497.914 401.96 497.711C402.654 496.776 403.329 495.821 403.985 494.866V494.857C404.236 494.5 404.477 494.133 404.727 493.777C404.969 493.41 405.21 493.044 405.451 492.677C405.692 492.291 405.943 491.915 406.184 491.53L406.213 491.472C406.454 491.105 406.695 490.72 406.926 490.343C407.11 490.035 407.293 489.736 407.476 489.437C407.592 489.234 407.717 489.032 407.833 488.82C407.878 488.754 407.92 488.687 407.958 488.617C408.228 488.145 408.498 487.672 408.768 487.2C409.086 486.65 409.395 486.09 409.704 485.531C409.819 485.3 409.945 485.068 410.07 484.837C410.118 484.76 410.157 484.682 410.196 484.605C410.34 484.335 410.485 484.056 410.62 483.776C410.765 483.506 410.909 483.226 411.054 482.947C411.189 482.677 411.333 482.397 411.469 482.117C411.575 481.905 411.671 481.693 411.777 481.481C411.785 481.463 411.794 481.447 411.806 481.432C411.854 481.326 411.903 481.23 411.941 481.133C411.953 481.119 411.963 481.103 411.97 481.085C412.076 480.873 412.173 480.651 412.279 480.439C412.414 480.159 412.539 479.87 412.674 479.59C412.761 479.398 412.857 479.195 412.944 478.993C413.069 478.713 413.204 478.433 413.32 478.144C413.455 477.854 413.581 477.565 413.706 477.266C413.742 477.194 413.774 477.12 413.802 477.044C413.87 476.909 413.918 476.774 413.976 476.639C414.13 476.283 414.285 475.916 414.429 475.559C414.603 475.154 414.767 474.74 414.921 474.334C415.075 473.958 415.22 473.573 415.365 473.187L415.423 473.052C417.67 467.133 419.374 461.023 420.514 454.796V454.786C421.158 451.231 421.618 447.645 421.894 444.043C421.903 443.84 421.923 443.647 421.932 443.455C422.106 441.015 422.183 438.565 422.183 436.106C422.183 435.016 422.164 433.936 422.135 432.856C421.461 410.266 413.406 388.519 399.202 370.942C398.893 370.556 398.584 370.17 398.266 369.784C397.948 369.399 397.62 369.023 397.302 368.646C386.73 356.266 373.397 346.542 358.377 340.26C343.358 333.978 327.073 331.312 310.834 332.479C294.596 333.645 278.859 338.611 264.891 346.975C250.924 355.34 239.118 366.869 230.424 380.634C229.951 381.386 229.479 382.148 229.026 382.91C228.563 383.681 228.119 384.453 227.675 385.234C218.939 400.764 214.361 418.287 214.386 436.106Z" fill="#F2F2F2"/>
<path d="M314.16 368.148C331.244 372.532 348.752 375.059 366.379 375.685C369.045 375.831 371.717 375.812 374.38 375.631C380.233 375.139 385.247 373.299 390.83 372.294C393.514 371.812 396.504 371.46 399.206 370.939C398.582 370.164 397.946 369.399 397.299 368.643C391.472 369.136 385.555 370.747 379.658 371.496C369.634 372.771 358.402 371.348 350.803 367.84C347.116 366.138 344.292 364.013 340.618 362.303C340.118 362.047 339.577 361.881 339.019 361.814C337.96 361.782 336.914 362.053 336.004 362.596C329.84 365.708 320.891 368.236 312.584 366.845C311.965 367.33 313.141 367.882 314.16 368.148Z" fill="white"/>
<path d="M277.402 379.099C277.326 379.085 277.25 379.074 277.174 379.061C277.493 378.863 277.794 378.637 278.072 378.385L277.402 379.099Z" fill="white"/>
<path d="M227.677 385.238C231.146 385.515 234.634 385.722 238.139 385.857C240.805 386.001 243.477 385.983 246.14 385.803C251.993 385.308 257.006 383.471 262.59 382.466C267.707 381.546 273.925 381.103 277.174 379.061C268.777 377.608 260.077 380.566 251.418 381.668C244.414 382.529 237.314 382.178 230.429 380.631C229.47 382.139 228.553 383.675 227.677 385.238Z" fill="white"/>
<path d="M269.646 527.926C270.475 528.379 271.314 528.813 272.153 529.228C272.452 529.372 272.76 529.517 273.059 529.671C273.31 529.787 273.561 529.912 273.812 530.028C273.889 530.067 273.956 530.096 274.024 530.134C274.236 530.231 274.439 530.327 274.651 530.424C274.882 530.53 275.114 530.636 275.335 530.742C275.596 530.857 275.847 530.973 276.107 531.079C277.071 531.513 278.045 531.928 279.019 532.323C282.51 533.754 286.077 534.991 289.705 536.027C289.869 536.075 290.042 536.123 290.216 536.171C291.769 536.605 293.331 537.001 294.903 537.358C297.651 537.994 300.426 538.515 303.226 538.92H303.245C303.582 538.968 303.91 539.016 304.248 539.065C304.277 539.065 304.306 539.074 304.344 539.074C304.344 539.084 304.344 539.084 304.354 539.074C304.72 539.122 305.096 539.171 305.463 539.219C305.488 539.226 305.514 539.229 305.54 539.228C305.887 539.277 306.244 539.315 306.591 539.354C306.967 539.392 307.343 539.431 307.72 539.47C308.009 539.499 308.298 539.527 308.588 539.556C308.612 539.565 308.639 539.568 308.665 539.566C308.925 539.585 309.185 539.614 309.446 539.634H309.484C309.706 539.653 309.938 539.672 310.16 539.691C312.85 539.904 315.55 540 318.289 540C321.25 540 324.191 539.884 327.094 539.634H327.123C327.75 539.576 328.367 539.518 328.984 539.46C329.148 539.441 329.303 539.431 329.467 539.412C329.496 539.412 329.534 539.402 329.563 539.402C329.611 539.392 329.659 539.392 329.717 539.383C329.743 539.384 329.769 539.381 329.794 539.373C330.007 539.354 330.219 539.325 330.441 539.306L331.164 539.219C331.405 539.19 331.646 539.151 331.887 539.122C331.945 539.113 331.993 539.113 332.051 539.103C332.225 539.084 332.398 539.055 332.572 539.026C332.659 539.016 332.746 539.007 332.823 538.997C332.996 538.968 333.16 538.949 333.334 538.92H333.343C338.635 538.158 343.859 536.981 348.967 535.4C349.237 535.313 349.507 535.236 349.777 535.149C348.531 529.342 345.968 523.899 342.284 519.24C338.6 514.581 333.895 510.832 328.531 508.281C329.858 507.017 330.775 505.385 331.164 503.594C331.414 502.44 331.434 501.248 331.222 500.086C331.01 498.924 330.571 497.816 329.929 496.824C328.678 494.902 326.715 493.557 324.471 493.082L310.179 490.093C307.878 489.644 305.493 490.122 303.543 491.422C301.593 492.722 300.234 494.74 299.763 497.036C299.618 497.74 299.553 498.459 299.571 499.177C285.809 508.339 275.904 517.838 269.646 527.926Z" fill="#042558"/>
<path d="M311.846 484.447C328.291 484.447 341.622 471.116 341.622 454.671C341.622 438.226 328.291 424.895 311.846 424.895C295.401 424.895 282.07 438.226 282.07 454.671C282.07 471.116 295.401 484.447 311.846 484.447Z" fill="#FFB8B8"/>
<path d="M293.286 480.343C290.111 478.174 286.868 474.006 284.704 470.882C281.835 466.776 279.862 462.113 278.91 457.195C277.959 452.277 278.052 447.215 279.183 442.335C279.543 440.384 280.43 438.568 281.746 437.084C283.148 435.696 285.439 435.038 287.151 436.019C286.684 434.769 286.478 433.435 286.546 432.102C286.614 430.768 286.955 429.463 287.547 428.266C288.751 425.877 290.494 423.801 292.639 422.202C296.741 419.043 301.623 417.053 306.764 416.445C311.906 415.836 317.117 416.631 321.844 418.744C323.704 419.606 320.649 412.95 322.596 413.592C324.53 414.341 326.68 414.303 328.586 413.487C330.417 412.565 336.486 418.041 335.784 416.115C337.174 416.746 338.381 417.718 339.293 418.941C340.206 420.165 340.794 421.599 341.003 423.11C341.212 424.622 341.035 426.162 340.489 427.587C339.943 429.012 339.045 430.275 337.878 431.26C336.342 432.557 334.423 433.304 332.74 434.405C329.792 436.479 327.706 439.561 326.874 443.068C326.043 446.576 326.524 450.266 328.228 453.443C326.458 452.305 324.515 451.461 322.476 450.943C321.453 450.693 320.385 450.691 319.361 450.938C318.337 451.184 317.386 451.671 316.588 452.359C315.922 453.122 315.418 454.013 315.109 454.977C314.799 455.942 314.69 456.959 314.788 457.968C314.854 459.988 315.335 461.979 315.389 464C315.548 469.93 318.723 481.205 314.126 484.357C310.497 486.845 297.622 483.305 293.286 480.343Z" fill="#2F2E41"/>
<path d="M332.319 305.633C331.692 305.632 331.072 305.506 330.493 305.264C329.63 304.917 328.891 304.318 328.375 303.544C327.858 302.771 327.586 301.859 327.596 300.929V296.216C327.595 295.227 327.202 294.279 326.503 293.58C325.804 292.881 324.856 292.488 323.868 292.487C322.623 292.485 321.43 291.99 320.551 291.11C319.671 290.23 319.176 289.037 319.174 287.793V223.222C319.176 221.978 319.671 220.785 320.55 219.905C321.43 219.025 322.623 218.53 323.867 218.529H537.794C539.039 218.53 540.232 219.025 541.111 219.905C541.991 220.785 542.486 221.978 542.488 223.222V287.793C542.486 289.037 541.991 290.23 541.111 291.11C540.232 291.99 539.039 292.485 537.794 292.487H348.914C348.424 292.485 347.938 292.581 347.486 292.768C347.033 292.956 346.622 293.231 346.277 293.579L335.609 304.247C335.179 304.684 334.668 305.032 334.103 305.27C333.538 305.508 332.932 305.631 332.319 305.633Z" fill="white"/>
<path d="M332.319 306.597C331.565 306.597 330.819 306.446 330.124 306.155C329.083 305.736 328.193 305.014 327.57 304.081C326.947 303.149 326.62 302.05 326.632 300.929V296.216C326.631 295.483 326.34 294.78 325.822 294.262C325.303 293.744 324.601 293.452 323.868 293.451C322.368 293.449 320.93 292.852 319.869 291.792C318.808 290.731 318.212 289.293 318.21 287.793V223.222C318.212 221.722 318.808 220.284 319.869 219.223C320.929 218.163 322.367 217.566 323.867 217.564H537.794C539.294 217.566 540.732 218.163 541.793 219.223C542.854 220.284 543.45 221.722 543.452 223.222V287.793C543.45 289.293 542.854 290.731 541.793 291.792C540.733 292.852 539.294 293.449 537.794 293.451H348.914C348.55 293.45 348.19 293.521 347.855 293.66C347.519 293.799 347.215 294.003 346.958 294.261L336.29 304.929C335.772 305.456 335.154 305.874 334.472 306.161C333.79 306.447 333.059 306.596 332.319 306.597ZM323.867 219.493C322.879 219.494 321.931 219.887 321.232 220.587C320.533 221.286 320.14 222.233 320.139 223.222V287.793C320.14 288.781 320.533 289.729 321.232 290.429C321.931 291.128 322.879 291.521 323.868 291.522C325.112 291.524 326.305 292.019 327.185 292.899C328.065 293.779 328.559 294.972 328.561 296.216V300.929C328.561 301.666 328.78 302.387 329.189 303C329.599 303.613 330.182 304.091 330.863 304.373C331.544 304.655 332.294 304.729 333.017 304.585C333.74 304.441 334.405 304.086 334.926 303.565L345.595 292.897C346.029 292.46 346.547 292.113 347.116 291.877C347.686 291.641 348.297 291.52 348.914 291.522H537.794C538.783 291.521 539.731 291.128 540.43 290.429C541.129 289.729 541.522 288.781 541.523 287.793V223.222C541.522 222.233 541.129 221.285 540.43 220.586C539.731 219.887 538.783 219.494 537.794 219.493L323.867 219.493Z" fill="#3F3D56"/>
<path d="M519.411 247.762H345.938C345.276 247.762 344.64 247.499 344.172 247.03C343.703 246.561 343.44 245.926 343.44 245.263C343.44 244.601 343.703 243.965 344.172 243.496C344.64 243.028 345.276 242.765 345.938 242.765H519.411C520.074 242.765 520.709 243.028 521.178 243.496C521.646 243.965 521.91 244.601 521.91 245.263C521.91 245.926 521.646 246.561 521.178 247.03C520.709 247.499 520.074 247.762 519.411 247.762Z" fill="#042558"/>
<path d="M519.092 258.377H345.938C345.276 258.377 344.64 258.114 344.172 257.645C343.703 257.176 343.44 256.541 343.44 255.878C343.44 255.216 343.703 254.58 344.172 254.111C344.64 253.643 345.276 253.38 345.938 253.38H519.092C519.755 253.38 520.391 253.643 520.859 254.111C521.328 254.58 521.591 255.216 521.591 255.878C521.591 256.541 521.328 257.176 520.859 257.645C520.391 258.114 519.755 258.377 519.092 258.377Z" fill="#E6E6E6"/>
<path d="M518.92 268.991H345.938C345.276 268.991 344.64 268.728 344.172 268.259C343.703 267.791 343.44 267.155 343.44 266.493C343.44 265.83 343.703 265.195 344.172 264.726C344.64 264.257 345.276 263.994 345.938 263.994H518.92C519.583 263.994 520.218 264.257 520.687 264.726C521.155 265.195 521.419 265.83 521.419 266.493C521.419 267.155 521.155 267.791 520.687 268.259C520.218 268.728 519.583 268.991 518.92 268.991Z" fill="#E6E6E6"/>
<path d="M792.595 208.509C792.595 210.852 792.518 213.196 792.354 215.52C792.18 218.297 791.881 221.055 791.476 223.794C790.115 233.016 787.513 242.012 783.742 250.537C783.549 250.961 783.356 251.386 783.163 251.81L782.874 252.446C782.777 252.659 782.671 252.871 782.575 253.073C782.44 253.353 782.314 253.623 782.179 253.893C782.015 254.231 781.851 254.568 781.678 254.906C781.659 254.944 781.639 254.992 781.61 255.041C781.466 255.33 781.331 255.61 781.176 255.899C781.148 255.962 781.116 256.023 781.08 256.082C780.916 256.41 780.742 256.748 780.569 257.076C780.376 257.423 780.193 257.78 780 258.127C779.537 258.985 779.055 259.834 778.563 260.682C778.418 260.933 778.274 261.184 778.119 261.435C777.984 261.666 777.849 261.898 777.705 262.129C777.608 262.283 777.512 262.447 777.415 262.602C777.261 262.862 777.107 263.113 776.943 263.373C776.586 263.942 776.219 264.511 775.863 265.08H775.853C775.689 265.34 775.515 265.601 775.342 265.852V265.861C774.831 266.633 774.3 267.404 773.77 268.166C773.769 268.166 773.767 268.166 773.766 268.167C773.765 268.167 773.764 268.168 773.763 268.169C773.762 268.17 773.761 268.171 773.761 268.172C773.76 268.173 773.76 268.174 773.76 268.176C773.336 268.793 772.892 269.391 772.458 269.989V269.998C772.169 270.375 771.889 270.76 771.6 271.136C771.368 271.445 771.127 271.763 770.886 272.072C770.838 272.139 770.78 272.197 770.732 272.265V272.274C770.664 272.361 770.597 272.438 770.529 272.525C769.507 273.837 768.453 275.119 767.366 276.373L767.193 276.576C767.135 276.643 767.067 276.711 767.009 276.788C766.913 276.894 766.826 277 766.73 277.106C766.643 277.212 766.547 277.318 766.45 277.424C760.786 283.804 754.364 289.469 747.326 294.292C746.391 294.938 745.436 295.565 744.481 296.172C744.24 296.326 743.999 296.481 743.758 296.625C743.691 296.674 743.613 296.722 743.546 296.77C743.411 296.847 743.286 296.924 743.15 297.011C743.025 297.088 742.9 297.165 742.765 297.243C742.254 297.561 741.733 297.869 741.212 298.178C741.087 298.255 740.952 298.332 740.817 298.41C740.691 298.477 740.556 298.554 740.421 298.631C740.421 298.641 740.421 298.641 740.412 298.641H740.402V298.651H740.392C739.746 299.027 739.09 299.393 738.425 299.75C738.068 299.943 737.702 300.145 737.335 300.329C736.506 300.782 735.667 301.216 734.828 301.631C734.529 301.775 734.22 301.92 733.921 302.074C733.671 302.19 733.42 302.315 733.169 302.431C733.092 302.47 733.024 302.499 732.957 302.537C732.745 302.634 732.542 302.73 732.33 302.826C732.099 302.933 731.867 303.039 731.645 303.145C731.385 303.26 731.134 303.376 730.874 303.482C729.909 303.916 728.935 304.331 727.961 304.726C724.471 306.157 720.903 307.393 717.276 308.43C717.112 308.478 716.938 308.526 716.765 308.574C715.212 309.008 713.65 309.404 712.078 309.76C709.329 310.397 706.555 310.918 703.755 311.323H703.736C703.398 311.371 703.07 311.419 702.733 311.467C702.704 311.467 702.675 311.477 702.636 311.477C702.636 311.487 702.636 311.487 702.627 311.477C702.26 311.525 701.884 311.574 701.518 311.622C701.493 311.629 701.467 311.632 701.441 311.631C701.093 311.68 700.737 311.718 700.389 311.757C700.013 311.795 699.637 311.834 699.261 311.872C698.972 311.901 698.682 311.93 698.393 311.959C698.368 311.968 698.342 311.971 698.316 311.969C698.056 311.988 697.795 312.017 697.535 312.036H697.496C697.274 312.056 697.043 312.075 696.821 312.094C694.131 312.306 691.43 312.403 688.691 312.403C685.731 312.403 682.789 312.287 679.887 312.036H679.858C679.231 311.979 678.614 311.921 677.996 311.863C677.832 311.844 677.678 311.834 677.514 311.815C677.485 311.815 677.447 311.805 677.418 311.805C677.369 311.795 677.321 311.795 677.263 311.786C677.237 311.787 677.211 311.783 677.186 311.776C676.974 311.757 676.762 311.728 676.54 311.708L675.817 311.622C675.576 311.593 675.335 311.554 675.094 311.525C675.036 311.516 674.987 311.516 674.93 311.506C674.756 311.487 674.582 311.458 674.409 311.429C674.322 311.419 674.235 311.41 674.158 311.4C673.984 311.371 673.821 311.352 673.647 311.323H673.637C668.345 310.561 663.122 309.384 658.014 307.803C657.744 307.716 657.474 307.639 657.204 307.552C657.195 307.552 657.185 307.542 657.175 307.542C657.098 307.513 657.011 307.494 656.934 307.465C656.211 307.234 655.497 306.993 654.784 306.742C653.8 306.414 652.826 306.057 651.852 305.691C651.591 305.585 651.331 305.488 651.071 305.382C650.54 305.18 650.019 304.967 649.499 304.755C648.611 304.398 647.724 304.022 646.847 303.637C646.027 303.27 645.217 302.904 644.407 302.518C644.387 302.508 644.358 302.508 644.339 302.489C644.156 302.402 643.973 302.315 643.799 302.229H643.789C639.348 300.097 635.065 297.651 630.973 294.909C629.661 294.031 628.369 293.125 627.096 292.189C626.074 291.427 625.071 290.656 624.068 289.865C619.12 285.929 614.539 281.552 610.383 276.788V276.778C610.084 276.45 609.804 276.113 609.515 275.775C609.467 275.727 609.428 275.679 609.39 275.64C609.207 275.418 609.033 275.206 608.85 274.994V274.984C608.609 274.705 608.368 274.415 608.136 274.126C608.078 274.059 608.03 274.001 607.982 273.943V273.933C607.789 273.702 607.606 273.47 607.413 273.229C607.316 273.113 607.229 272.998 607.133 272.882V272.872C606.564 272.159 606.014 271.445 605.465 270.712C605.32 270.519 605.175 270.317 605.021 270.114C604.327 269.179 603.652 268.224 602.996 267.269V267.26C602.745 266.903 602.504 266.536 602.253 266.179C602.012 265.813 601.771 265.447 601.53 265.08C601.289 264.694 601.038 264.318 600.797 263.932L600.768 263.875C600.527 263.508 600.286 263.122 600.054 262.746C599.871 262.438 599.688 262.139 599.505 261.84C599.389 261.637 599.264 261.435 599.148 261.223C599.103 261.157 599.061 261.09 599.023 261.02C598.753 260.547 598.482 260.075 598.212 259.602C597.894 259.053 597.586 258.493 597.277 257.934C597.161 257.702 597.036 257.471 596.911 257.24C596.862 257.162 596.824 257.085 596.785 257.008C596.641 256.738 596.496 256.458 596.361 256.179C596.216 255.909 596.072 255.629 595.927 255.349C595.792 255.079 595.647 254.8 595.512 254.52C595.406 254.308 595.31 254.096 595.204 253.883C595.196 253.866 595.186 253.85 595.175 253.835C595.126 253.729 595.078 253.633 595.04 253.536C595.028 253.522 595.018 253.505 595.011 253.488C594.905 253.276 594.808 253.054 594.702 252.842C594.567 252.562 594.442 252.273 594.307 251.993C594.22 251.8 594.124 251.598 594.037 251.395C593.911 251.116 593.776 250.836 593.661 250.547C593.526 250.257 593.4 249.968 593.275 249.669C593.239 249.597 593.206 249.523 593.178 249.447C593.111 249.312 593.063 249.177 593.005 249.042C592.851 248.685 592.696 248.319 592.552 247.962C592.378 247.557 592.214 247.142 592.06 246.737C591.905 246.361 591.761 245.975 591.616 245.59L591.558 245.455C589.311 239.536 587.607 233.426 586.466 227.199V227.189C585.823 223.634 585.363 220.048 585.087 216.446C585.078 216.243 585.058 216.05 585.049 215.857C584.875 213.417 584.798 210.968 584.798 208.509C584.798 207.419 584.817 206.339 584.846 205.259C585.519 182.669 593.574 160.922 607.779 143.345C608.088 142.959 608.396 142.573 608.715 142.187C609.033 141.802 609.361 141.425 609.679 141.049C620.251 128.669 633.584 118.945 648.603 112.663C663.623 106.38 679.908 103.715 696.147 104.882C712.385 106.048 728.122 111.014 742.089 119.378C756.057 127.743 767.863 139.272 776.557 153.037C777.029 153.789 777.502 154.551 777.955 155.313C778.418 156.084 778.862 156.856 779.305 157.637C788.042 173.167 792.62 190.69 792.595 208.509Z" fill="#F2F2F2"/>
<path d="M692.821 140.551C675.736 144.935 658.228 147.462 640.601 148.088C637.936 148.233 635.264 148.215 632.6 148.034C626.747 147.542 621.734 145.702 616.151 144.697C613.466 144.215 610.476 143.862 607.774 143.342C608.399 142.567 609.034 141.802 609.681 141.046C615.508 141.538 621.426 143.15 627.323 143.899C637.347 145.173 648.578 143.751 656.178 140.243C659.865 138.541 662.689 136.416 666.363 134.706C666.862 134.45 667.404 134.284 667.961 134.216C669.02 134.185 670.067 134.456 670.977 134.999C677.141 138.111 686.09 140.639 694.396 139.248C695.016 139.732 693.839 140.284 692.821 140.551Z" fill="white"/>
<path d="M729.579 151.502C729.654 151.488 729.73 151.477 729.806 151.464C729.487 151.266 729.187 151.04 728.909 150.788L729.579 151.502Z" fill="white"/>
<path d="M779.304 157.641C775.834 157.918 772.347 158.124 768.841 158.26C766.176 158.404 763.504 158.386 760.841 158.206C754.988 157.711 749.974 155.874 744.391 154.868C739.274 153.949 733.056 153.506 729.807 151.464C738.204 150.01 746.904 152.969 755.563 154.07C762.567 154.932 769.667 154.581 776.552 153.034C777.511 154.542 778.428 156.078 779.304 157.641Z" fill="white"/>
<path d="M676.979 253.971C694.213 253.971 708.185 239.688 708.185 222.07C708.185 204.451 694.213 190.168 676.979 190.168C659.744 190.168 645.772 204.451 645.772 222.07C645.772 239.688 659.744 253.971 676.979 253.971Z" fill="#FFB6B6"/>
<path d="M737.335 300.329C736.506 300.782 735.667 301.216 734.828 301.631C734.529 301.775 734.22 301.92 733.921 302.074C733.67 302.19 733.42 302.315 733.169 302.431C733.092 302.47 733.024 302.498 732.957 302.537C732.745 302.633 732.542 302.73 732.33 302.826C732.099 302.933 731.867 303.039 731.645 303.145C731.385 303.26 731.134 303.376 730.874 303.482C729.909 303.916 728.935 304.331 727.961 304.726C724.471 306.157 720.903 307.393 717.276 308.43C717.112 308.478 716.938 308.526 716.765 308.574C715.212 309.008 713.65 309.404 712.078 309.76C709.329 310.397 706.555 310.918 703.755 311.323H703.736C703.398 311.371 703.07 311.419 702.733 311.467C702.704 311.467 702.675 311.477 702.636 311.477C702.636 311.487 702.636 311.487 702.627 311.477C702.26 311.525 701.884 311.573 701.518 311.622C701.493 311.629 701.467 311.632 701.441 311.631C701.093 311.68 700.737 311.718 700.389 311.757C700.013 311.795 699.637 311.834 699.261 311.872C698.972 311.901 698.682 311.93 698.393 311.959C698.368 311.968 698.342 311.971 698.316 311.969C698.056 311.988 697.795 312.017 697.535 312.036H697.496C697.274 312.056 697.043 312.075 696.821 312.094C694.131 312.306 691.43 312.403 688.691 312.403C685.731 312.403 682.789 312.287 679.887 312.036H679.858C679.231 311.979 678.614 311.921 677.996 311.863C677.832 311.843 677.678 311.834 677.514 311.815C677.485 311.815 677.447 311.805 677.418 311.805C677.369 311.795 677.321 311.795 677.263 311.786C677.237 311.787 677.211 311.783 677.186 311.776C676.974 311.757 676.762 311.728 676.54 311.708L675.817 311.622C675.576 311.593 675.335 311.554 675.093 311.525C675.036 311.516 674.987 311.516 674.93 311.506C674.756 311.487 674.582 311.458 674.409 311.429C674.322 311.419 674.235 311.41 674.158 311.4C673.984 311.371 673.821 311.352 673.647 311.323H673.637C668.345 310.561 663.121 309.384 658.014 307.803C657.744 307.716 657.474 307.639 657.204 307.552C658.449 301.745 661.013 296.302 664.697 291.643C668.38 286.984 673.086 283.235 678.45 280.684C677.123 279.42 676.206 277.787 675.817 275.997C675.566 274.843 675.547 273.651 675.758 272.489C675.97 271.327 676.41 270.218 677.051 269.227C678.303 267.305 680.266 265.959 682.51 265.485L696.802 262.495C699.103 262.047 701.487 262.525 703.438 263.825C705.388 265.125 706.746 267.143 707.217 269.439C707.363 270.143 707.428 270.861 707.41 271.58C721.172 280.742 731.076 290.241 737.335 300.329Z" fill="#042558"/>
<path d="M760.483 208.234C755.179 202.048 752.657 193.841 748.416 186.817C744.176 179.793 736.797 173.506 729.001 175.14C723.627 176.267 719.474 181.009 717.371 186.296C715.269 191.583 714.875 197.413 714.507 203.125C714.637 191.387 706.904 180.008 696.251 176.263C685.599 172.517 672.851 176.695 666.157 186.125C663.236 183.418 659.423 181.876 655.442 181.793C651.46 181.709 647.586 183.089 644.553 185.672C638.566 191.023 637.241 201.208 641.644 208.033C646.048 214.859 655.584 217.402 662.581 213.616L665.055 215.892C663.662 220.762 666.363 226.515 670.902 228.349C674.583 229.835 679.78 229.588 681.157 233.451C682.12 236.15 680.321 239.031 678.407 241.105C676.493 243.179 674.221 245.321 673.991 248.191C673.644 252.522 678.119 255.555 682.187 256.469C691.996 258.672 702.88 254.129 708.534 245.473C708.643 245.306 708.762 245.139 708.89 244.971C712.062 240.915 714.373 236.254 715.683 231.274C716.993 226.294 717.274 221.099 716.509 216.007C716.191 214.006 716.511 212.518 717.891 212.044C723.853 209.996 740.558 214.295 745.613 218.18C750.669 222.065 754.718 227.206 759.587 231.342C764.457 235.477 770.663 238.667 776.846 237.541C781.798 236.639 786.011 233.044 788.845 228.707C791.678 224.371 793.309 219.316 794.77 214.292C783.819 220.618 768.832 217.97 760.483 208.234Z" fill="#2F2E41"/>
<path d="M119.876 143.894C119.876 146.238 119.953 148.581 120.117 150.905C120.291 153.683 120.59 156.441 120.995 159.18C122.356 168.402 124.958 177.398 128.729 185.922C128.922 186.347 129.115 186.771 129.308 187.195L129.597 187.832C129.693 188.044 129.799 188.256 129.896 188.459C130.031 188.738 130.156 189.009 130.291 189.279C130.455 189.616 130.619 189.954 130.793 190.291C130.812 190.33 130.831 190.378 130.86 190.426C131.005 190.715 131.14 190.995 131.294 191.284C131.323 191.347 131.355 191.409 131.391 191.468C131.555 191.796 131.728 192.133 131.902 192.461C132.095 192.808 132.278 193.165 132.471 193.512C132.934 194.371 133.416 195.219 133.908 196.068C134.052 196.319 134.197 196.569 134.351 196.82C134.486 197.052 134.621 197.283 134.766 197.514C134.863 197.669 134.959 197.833 135.055 197.987C135.21 198.247 135.364 198.498 135.528 198.759C135.885 199.328 136.251 199.897 136.608 200.466H136.618C136.782 200.726 136.955 200.986 137.129 201.237V201.247C137.64 202.018 138.17 202.79 138.701 203.552C138.702 203.552 138.703 203.552 138.705 203.552C138.706 203.553 138.707 203.553 138.708 203.554C138.709 203.555 138.709 203.556 138.71 203.557C138.71 203.559 138.71 203.56 138.71 203.561C139.135 204.178 139.578 204.776 140.012 205.374V205.384C140.302 205.76 140.581 206.146 140.871 206.522C141.102 206.83 141.343 207.149 141.584 207.457C141.633 207.525 141.69 207.583 141.739 207.65V207.66C141.806 207.747 141.874 207.824 141.941 207.911C142.963 209.222 144.018 210.505 145.104 211.759L145.278 211.961C145.336 212.029 145.403 212.096 145.461 212.173C145.558 212.279 145.644 212.385 145.741 212.491C145.828 212.598 145.924 212.704 146.021 212.81C151.684 219.19 158.107 224.854 165.144 229.677C166.08 230.323 167.035 230.95 167.989 231.558C168.23 231.712 168.471 231.866 168.713 232.011C168.78 232.059 168.857 232.107 168.925 232.156C169.06 232.233 169.185 232.31 169.32 232.397C169.446 232.474 169.571 232.551 169.706 232.628C170.217 232.946 170.738 233.255 171.259 233.564C171.384 233.641 171.519 233.718 171.654 233.795C171.779 233.862 171.914 233.94 172.049 234.017C172.049 234.026 172.049 234.026 172.059 234.026H172.069V234.036H172.078C172.724 234.412 173.38 234.779 174.046 235.135C174.402 235.328 174.769 235.531 175.135 235.714C175.965 236.167 176.804 236.601 177.643 237.016C177.942 237.161 178.25 237.305 178.549 237.46C178.8 237.575 179.051 237.701 179.302 237.816C179.379 237.855 179.446 237.884 179.514 237.923C179.726 238.019 179.928 238.115 180.141 238.212C180.372 238.318 180.603 238.424 180.825 238.53C181.086 238.646 181.336 238.762 181.597 238.868C182.561 239.302 183.535 239.716 184.509 240.112C188 241.543 191.567 242.779 195.195 243.815C195.359 243.863 195.532 243.911 195.706 243.96C197.259 244.394 198.821 244.789 200.393 245.146C203.141 245.782 205.915 246.303 208.715 246.708H208.735C209.072 246.756 209.4 246.805 209.738 246.853C209.767 246.853 209.796 246.863 209.834 246.863C209.834 246.872 209.834 246.872 209.844 246.863C210.21 246.911 210.586 246.959 210.953 247.007C210.978 247.015 211.004 247.018 211.03 247.017C211.377 247.065 211.734 247.104 212.081 247.142C212.457 247.181 212.833 247.219 213.209 247.258C213.499 247.287 213.788 247.316 214.077 247.345C214.102 247.353 214.128 247.357 214.155 247.354C214.415 247.374 214.675 247.403 214.936 247.422H214.974C215.196 247.441 215.428 247.46 215.649 247.48C218.34 247.692 221.04 247.788 223.779 247.788C226.74 247.788 229.681 247.673 232.584 247.422H232.613C233.24 247.364 233.857 247.306 234.474 247.248C234.638 247.229 234.793 247.219 234.956 247.2C234.985 247.2 235.024 247.19 235.053 247.19C235.101 247.181 235.149 247.181 235.207 247.171C235.233 247.172 235.259 247.169 235.284 247.161C235.497 247.142 235.709 247.113 235.93 247.094L236.654 247.007C236.895 246.978 237.136 246.94 237.377 246.911C237.435 246.901 237.483 246.901 237.541 246.891C237.715 246.872 237.888 246.843 238.062 246.814C238.149 246.805 238.235 246.795 238.313 246.785C238.486 246.756 238.65 246.737 238.824 246.708H238.833C244.125 245.946 249.349 244.769 254.456 243.188C254.726 243.101 254.996 243.024 255.266 242.937C255.276 242.937 255.286 242.928 255.295 242.928C255.373 242.899 255.459 242.88 255.537 242.851C256.26 242.619 256.973 242.378 257.687 242.127C258.671 241.799 259.645 241.443 260.619 241.076C260.879 240.97 261.14 240.874 261.4 240.768C261.93 240.565 262.451 240.353 262.972 240.141C263.859 239.784 264.746 239.408 265.624 239.022C266.444 238.656 267.254 238.289 268.064 237.903C268.083 237.894 268.112 237.894 268.131 237.874C268.315 237.788 268.498 237.701 268.671 237.614H268.681C273.122 235.483 277.405 233.036 281.498 230.294C282.809 229.417 284.102 228.51 285.375 227.575C286.397 226.813 287.4 226.041 288.403 225.25C293.351 221.315 297.931 216.938 302.088 212.173V212.164C302.386 211.836 302.666 211.498 302.955 211.161C303.004 211.112 303.042 211.064 303.081 211.026C303.264 210.804 303.438 210.592 303.621 210.38V210.37C303.862 210.09 304.103 209.801 304.335 209.512C304.392 209.444 304.441 209.386 304.489 209.328V209.319C304.682 209.087 304.865 208.856 305.058 208.615C305.154 208.499 305.241 208.383 305.338 208.267V208.258C305.906 207.544 306.456 206.831 307.006 206.098C307.151 205.905 307.295 205.702 307.45 205.5C308.144 204.564 308.819 203.609 309.475 202.655V202.645C309.725 202.288 309.967 201.922 310.217 201.565C310.458 201.198 310.7 200.832 310.941 200.466C311.182 200.08 311.432 199.704 311.674 199.318L311.702 199.26C311.944 198.894 312.185 198.508 312.416 198.132C312.599 197.823 312.783 197.524 312.966 197.225C313.082 197.023 313.207 196.82 313.323 196.608C313.368 196.543 313.41 196.475 313.448 196.405C313.718 195.933 313.988 195.46 314.258 194.988C314.576 194.438 314.885 193.879 315.194 193.319C315.309 193.088 315.435 192.857 315.56 192.625C315.608 192.548 315.647 192.471 315.685 192.394C315.83 192.124 315.975 191.844 316.11 191.564C316.254 191.294 316.399 191.015 316.544 190.735C316.679 190.465 316.823 190.185 316.958 189.905C317.064 189.693 317.161 189.481 317.267 189.269C317.274 189.252 317.284 189.235 317.296 189.221C317.344 189.115 317.392 189.018 317.431 188.922C317.443 188.907 317.452 188.891 317.46 188.874C317.566 188.661 317.662 188.44 317.768 188.227C317.904 187.948 318.029 187.658 318.164 187.379C318.251 187.186 318.347 186.983 318.434 186.781C318.559 186.501 318.694 186.221 318.81 185.932C318.945 185.643 319.07 185.354 319.196 185.055C319.232 184.982 319.264 184.908 319.292 184.833C319.36 184.698 319.408 184.563 319.466 184.428C319.62 184.071 319.774 183.704 319.919 183.348C320.093 182.942 320.257 182.528 320.411 182.123C320.565 181.747 320.71 181.361 320.855 180.975L320.912 180.84C323.159 174.922 324.864 168.811 326.004 162.584V162.575C326.648 159.019 327.108 155.434 327.383 151.831C327.393 151.629 327.412 151.436 327.422 151.243C327.596 148.803 327.673 146.353 327.673 143.894C327.673 142.804 327.653 141.724 327.625 140.644C326.951 118.055 318.896 96.3075 304.691 78.73C304.383 78.3443 304.074 77.9585 303.756 77.5728C303.438 77.187 303.11 76.8109 302.792 76.4348C292.22 64.054 278.886 54.3306 263.867 48.0483C248.848 41.766 232.563 39.1006 216.324 40.2671C200.086 41.4335 184.349 46.3992 170.381 54.7637C156.414 63.1282 144.608 74.6575 135.914 88.4222C135.441 89.1744 134.969 89.9363 134.515 90.6982C134.053 91.4698 133.609 92.2412 133.165 93.0224C124.429 108.552 119.851 126.075 119.876 143.894Z" fill="#F2F2F2"/>
<path d="M219.65 75.9367C236.734 80.3206 254.242 82.8476 271.869 83.4737C274.535 83.6189 277.207 83.6007 279.87 83.4193C285.723 82.927 290.737 81.0875 296.32 80.0822C299.004 79.6003 301.994 79.2479 304.696 78.7271C304.072 77.9524 303.436 77.1873 302.789 76.4316C296.962 76.9238 291.045 78.5354 285.148 79.2842C275.124 80.5589 263.892 79.1365 256.293 75.6284C252.606 73.9261 249.782 71.8016 246.108 70.0915C245.608 69.835 245.067 69.6692 244.509 69.6019C243.45 69.5701 242.404 69.8415 241.494 70.3843C235.33 73.496 226.381 76.0248 218.074 74.6334C217.455 75.118 218.631 75.6698 219.65 75.9367Z" fill="white"/>
<path d="M182.892 86.8874C182.816 86.8735 182.74 86.8627 182.664 86.8495C182.983 86.6518 183.284 86.4254 183.562 86.1732L182.892 86.8874Z" fill="white"/>
<path d="M133.167 93.0264C136.636 93.3036 140.124 93.51 143.629 93.6456C146.295 93.7895 148.967 93.7713 151.63 93.5912C157.483 93.0963 162.496 91.2593 168.08 90.254C173.197 89.3343 179.415 88.8912 182.664 86.8496C174.267 85.3961 165.567 88.3549 156.908 89.4561C149.904 90.3173 142.804 89.9667 135.919 88.4197C134.96 89.9276 134.043 91.4632 133.167 93.0264Z" fill="white"/>
<path d="M175.135 235.714C175.965 236.167 176.804 236.601 177.643 237.016C177.942 237.161 178.25 237.305 178.549 237.46C178.8 237.575 179.051 237.701 179.302 237.816C179.379 237.855 179.446 237.884 179.514 237.923C179.726 238.019 179.929 238.115 180.141 238.212C180.372 238.318 180.604 238.424 180.825 238.53C181.086 238.646 181.337 238.762 181.597 238.868C182.561 239.302 183.535 239.716 184.509 240.112C188 241.543 191.567 242.779 195.195 243.815C195.359 243.863 195.532 243.911 195.706 243.96C197.259 244.394 198.821 244.789 200.393 245.146C203.141 245.782 205.916 246.303 208.716 246.708H208.735C209.072 246.756 209.4 246.805 209.738 246.853C209.767 246.853 209.796 246.863 209.834 246.863C209.834 246.872 209.834 246.872 209.844 246.863C210.21 246.911 210.586 246.959 210.953 247.007C210.978 247.015 211.004 247.018 211.03 247.017C211.377 247.065 211.734 247.104 212.081 247.142C212.457 247.181 212.833 247.219 213.21 247.258C213.499 247.287 213.788 247.316 214.078 247.345C214.102 247.353 214.129 247.357 214.155 247.354C214.415 247.374 214.675 247.403 214.936 247.422H214.974C215.196 247.441 215.428 247.46 215.65 247.48C218.34 247.692 221.04 247.788 223.779 247.788C226.74 247.788 229.681 247.673 232.584 247.422H232.613C233.24 247.364 233.857 247.306 234.474 247.248C234.638 247.229 234.793 247.219 234.957 247.2C234.985 247.2 235.024 247.19 235.053 247.19C235.101 247.181 235.149 247.181 235.207 247.171C235.233 247.172 235.259 247.169 235.284 247.161C235.497 247.142 235.709 247.113 235.931 247.094L236.654 247.007C236.895 246.978 237.136 246.94 237.377 246.911C237.435 246.901 237.483 246.901 237.541 246.891C237.715 246.872 237.888 246.843 238.062 246.814C238.149 246.805 238.235 246.795 238.313 246.785C238.486 246.756 238.65 246.737 238.824 246.708H238.833C244.125 245.946 249.349 244.769 254.456 243.188C254.727 243.101 254.997 243.024 255.267 242.937C254.021 237.13 251.458 231.687 247.774 227.028C244.09 222.37 239.385 218.62 234.021 216.069C235.348 214.806 236.265 213.173 236.654 211.382C236.904 210.228 236.924 209.036 236.712 207.874C236.5 206.712 236.061 205.604 235.419 204.612C234.168 202.691 232.205 201.345 229.961 200.871L215.669 197.881C213.368 197.432 210.983 197.91 209.033 199.21C207.083 200.511 205.724 202.528 205.253 204.825C205.108 205.529 205.043 206.247 205.061 206.966C191.299 216.127 181.394 225.627 175.135 235.714Z" fill="#042558"/>
<path d="M231.676 188.233C250.889 188.233 266.465 172.658 266.465 153.445C266.465 134.231 250.889 118.656 231.676 118.656C212.463 118.656 196.888 134.231 196.888 153.445C196.888 172.658 212.463 188.233 231.676 188.233Z" fill="#9E616A"/>
<path d="M226.732 186.374C218.023 188.726 208.421 185.599 201.625 179.667C194.828 173.735 190.576 165.329 188.126 156.647C186.332 150.288 185.482 143.229 188.313 137.26C191.144 131.29 198.764 127.262 204.643 130.278C201.016 126.053 202.828 119.064 207.064 115.45C211.299 111.835 217.115 110.799 222.655 110.232C230.694 109.41 238.998 109.318 246.647 111.922C254.297 114.527 261.248 120.221 263.642 127.939C266.087 129.078 268.841 129.373 271.472 128.779C274.103 128.185 276.463 126.735 278.182 124.656C278.625 127.044 278.269 129.511 277.169 131.675C276.069 133.84 274.286 135.582 272.097 136.631L283.818 132.831C285.833 137.098 282.301 142.379 277.784 143.745C273.268 145.112 268.392 143.618 264.106 141.644C259.82 139.67 255.666 137.174 251.01 136.405C246.354 135.635 240.886 137.131 238.732 141.33C237.604 143.529 237.545 146.105 236.89 148.488C236.236 150.871 234.577 153.342 232.113 153.537C230.556 153.66 229.032 152.831 227.48 153.001C226.527 153.188 225.65 153.65 224.955 154.328C224.261 155.007 223.779 155.873 223.57 156.821C223.183 158.724 223.178 160.684 223.556 162.588L226.533 185.346L226.732 186.374Z" fill="#2F2E41"/>
</svg>
