<svg width="101" height="100" viewBox="0 0 101 100" fill="none" xmlns="http://www.w3.org/2000/svg">
<path d="M54.9188 9.37496C53.7467 8.20327 52.1573 7.54504 50.5 7.54504C48.8428 7.54504 47.2533 8.20327 46.0813 9.37496L4.53754 50.9125C4.24699 51.203 4.01652 51.5479 3.85927 51.9276C3.70203 52.3072 3.62109 52.7141 3.62109 53.125C3.62109 53.5359 3.70203 53.9427 3.85927 54.3224C4.01652 54.702 4.24699 55.0469 4.53754 55.3375C5.12433 55.9243 5.92019 56.2539 6.75004 56.2539C7.16094 56.2539 7.56782 56.173 7.94744 56.0157C8.32706 55.8585 8.67199 55.628 8.96254 55.3375L13 51.2937V84.375C13 86.8614 13.9878 89.2459 15.7459 91.0041C17.5041 92.7622 19.8886 93.75 22.375 93.75H78.625C81.1114 93.75 83.496 92.7622 85.2542 91.0041C87.0123 89.2459 88 86.8614 88 84.375V51.2937L92.0375 55.3375C92.6243 55.9243 93.4202 56.2539 94.25 56.2539C95.0799 56.2539 95.8757 55.9243 96.4625 55.3375C97.0493 54.7507 97.379 53.9548 97.379 53.125C97.379 52.2951 97.0493 51.4993 96.4625 50.9125L81.75 36.2062V15.625C81.75 14.7962 81.4208 14.0013 80.8347 13.4153C80.2487 12.8292 79.4538 12.5 78.625 12.5H72.375C71.5462 12.5 70.7514 12.8292 70.1653 13.4153C69.5793 14.0013 69.25 14.7962 69.25 15.625V23.7062L54.9188 9.37496ZM81.75 45.0437V84.375C81.75 85.2038 81.4208 85.9986 80.8347 86.5847C80.2487 87.1707 79.4538 87.5 78.625 87.5H22.375C21.5462 87.5 20.7514 87.1707 20.1653 86.5847C19.5793 85.9986 19.25 85.2038 19.25 84.375V45.0437L50.5 13.7937L81.75 45.0437Z" fill="#C2E8FF"/>
</svg>
