<svg width="561" height="580" viewBox="0 0 561 580" fill="none" xmlns="http://www.w3.org/2000/svg">
<rect width="560.38" height="580" rx="20" fill="#010F21" fill-opacity="0.6"/>
<path d="M466.787 420.514L466.778 420.74L478.056 540H395.758L385.09 466.753L380.395 538.122L295.881 537.183L304.858 443.483L312.493 400.052V400.043L313.638 393.507H464.543L464.74 395.873L466.787 420.514Z" fill="#2F2E41"/>
<path d="M249.297 489.65C258.013 491.238 267.101 481.422 269.597 467.725C270.689 461.729 270.336 455.984 268.864 451.286L270.2 443.39L292.628 337.174C292.628 337.174 333.927 254.56 333.926 240.218C333.925 225.876 321.98 218.842 321.98 218.842L305.815 218.993L255.122 342.805L245.993 434.297L244.516 446.85C241.481 450.727 239.125 455.979 238.033 461.974C235.538 475.671 240.581 488.062 249.297 489.65Z" fill="#FFB6B6"/>
<path d="M413.731 167.664L398.706 132.918L349.876 141.37L346.589 182.249L413.731 167.664Z" fill="#FFB6B6"/>
<path opacity="0.1" d="M413.731 167.664L398.706 132.918L349.876 141.37L346.589 182.249L413.731 167.664Z" fill="black"/>
<path d="M519.843 239.971C519.843 239.971 485.099 175.176 478.525 168.602C475.599 165.676 470.999 165.635 466.794 166.488L418.427 149.821L402.033 140.61L400.953 158.135L347.131 167.795C347.43 157.108 348.937 153.043 348.937 153.043L329.217 176.115L290.717 194.896L290.738 195.065C287.912 196.051 285.234 197.739 283.204 200.53C275.692 210.86 255.033 336.694 255.033 336.694L299.168 346.084L305.175 308.391L309.498 342.328L312.784 405.715C312.784 405.715 372.883 457.363 401.993 438.582C431.104 419.8 466.787 420.74 466.787 420.74L467.678 391.358C468.312 390.345 468.666 389.751 468.666 389.751L467.726 285.53V257.798C474.88 267.764 483.513 276.336 493.55 280.35C526.417 293.497 519.843 239.971 519.843 239.971Z" fill="#E6E6E6"/>
<path d="M369.187 147.483C393.997 147.483 414.11 127.37 414.11 102.56C414.11 77.7495 393.997 57.6367 369.187 57.6367C344.377 57.6367 324.265 77.7495 324.265 102.56C324.265 127.37 344.377 147.483 369.187 147.483Z" fill="#FFB6B6"/>
<path d="M401.415 115.256C401.415 115.256 405.321 101.583 414.11 102.56C422.899 103.537 424.852 95.7238 422.899 91.8175C420.946 87.9111 417.04 68.3793 417.04 68.3793C417.04 68.3793 418.993 54.7071 407.274 52.7539C395.555 50.8007 391.649 48.8476 389.696 44.9412C387.742 41.0348 358.445 37.1285 348.679 42.988C338.914 48.8476 331.101 60.0899 324.265 63.258C317.429 66.4262 311.57 72.2857 315.476 82.0516C319.382 91.8175 325.047 110.917 325.047 110.917C325.047 110.917 335.007 107.443 336.961 113.302C338.914 119.162 331.101 111.349 340.867 95.7238C350.633 80.0984 350.633 64.473 366.258 70.3325C381.883 76.1921 399.461 74.2389 397.508 85.9579C395.555 97.677 401.415 115.256 401.415 115.256Z" fill="#2F2E41"/>
<path d="M398.667 471.389H57.4974C47.8492 471.389 40 463.539 40 453.891V272.659C40 263.012 47.8492 255.162 57.4974 255.162H398.667C408.316 255.162 416.165 263.012 416.165 272.659V453.891C416.165 463.539 408.316 471.389 398.667 471.389Z" fill="white"/>
<path d="M398.667 471.389H57.4974C47.8492 471.389 40 463.539 40 453.891V272.659C40 263.012 47.8492 255.162 57.4974 255.162H398.667C408.316 255.162 416.165 263.012 416.165 272.659V453.891C416.165 463.539 408.316 471.389 398.667 471.389ZM57.4974 258.084C49.4606 258.084 42.9219 264.622 42.9219 272.659V453.891C42.9219 461.928 49.4606 468.467 57.4974 468.467H398.667C406.704 468.467 413.243 461.928 413.243 453.891V272.659C413.243 264.622 406.704 258.084 398.667 258.084H57.4974Z" fill="#3F3D56"/>
<path d="M372.336 277.077C374.756 277.077 376.718 275.114 376.718 272.694C376.718 270.273 374.756 268.311 372.336 268.311C369.915 268.311 367.953 270.273 367.953 272.694C367.953 275.114 369.915 277.077 372.336 277.077Z" fill="#3F3D56"/>
<path d="M384.024 277.077C386.444 277.077 388.406 275.114 388.406 272.694C388.406 270.273 386.444 268.311 384.024 268.311C381.603 268.311 379.641 270.273 379.641 272.694C379.641 275.114 381.603 277.077 384.024 277.077Z" fill="#3F3D56"/>
<path d="M395.711 277.077C398.132 277.077 400.094 275.114 400.094 272.694C400.094 270.273 398.132 268.311 395.711 268.311C393.291 268.311 391.328 270.273 391.328 272.694C391.328 275.114 393.291 277.077 395.711 277.077Z" fill="#3F3D56"/>
<path d="M64.8365 343.552C63.628 343.552 62.645 344.535 62.645 345.743C62.645 346.332 62.8726 346.878 63.2856 347.28C63.7022 347.706 64.248 347.935 64.8365 347.935H392.789C393.998 347.935 394.981 346.952 394.981 345.743C394.981 345.154 394.753 344.609 394.34 344.207C393.924 343.78 393.378 343.552 392.789 343.552H64.8365Z" fill="#E6E6E6"/>
<path d="M351.882 342.821V348.665H64.8365C64.033 348.665 63.3025 348.344 62.7766 347.803C62.2359 347.277 61.9146 346.547 61.9146 345.743C61.9146 344.136 63.2295 342.821 64.8365 342.821H351.882Z" fill="#042558"/>
<path d="M389.137 331.864H359.918C356.695 331.864 354.074 329.243 354.074 326.02C354.074 322.797 356.695 320.176 359.918 320.176H389.137C392.359 320.176 394.981 322.797 394.981 326.02C394.981 329.243 392.359 331.864 389.137 331.864Z" fill="#E6E6E6"/>
<path d="M197.75 301.183H67.028C63.8057 301.183 61.1841 298.562 61.1841 295.339C61.1841 292.116 63.8057 289.495 67.028 289.495H197.75C200.972 289.495 203.593 292.116 203.593 295.339C203.593 298.562 200.972 301.183 197.75 301.183Z" fill="#E6E6E6"/>
<path d="M64.8365 409.296C63.628 409.296 62.645 410.279 62.645 411.488C62.645 412.077 62.8726 412.622 63.2856 413.024C63.7022 413.451 64.248 413.679 64.8365 413.679H392.789C393.998 413.679 394.981 412.696 394.981 411.488C394.981 410.899 394.753 410.354 394.34 409.951C393.924 409.525 393.378 409.296 392.789 409.296H64.8365Z" fill="#E6E6E6"/>
<path d="M239.387 408.566V414.41H64.8365C64.033 414.41 63.3025 414.088 62.7766 413.548C62.2359 413.022 61.9146 412.291 61.9146 411.488C61.9146 409.881 63.2295 408.566 64.8365 408.566H239.387Z" fill="#042558"/>
<path d="M389.137 397.608H359.918C356.695 397.608 354.074 394.987 354.074 391.764C354.074 388.541 356.695 385.92 359.918 385.92H389.137C392.359 385.92 394.981 388.541 394.981 391.764C394.981 394.987 392.359 397.608 389.137 397.608Z" fill="#E6E6E6"/>
<path d="M440.29 150.941C465.56 150.941 486.046 130.886 486.046 106.148C486.046 81.4094 465.56 61.355 440.29 61.355C415.019 61.355 394.533 81.4094 394.533 106.148C394.533 130.886 415.019 150.941 440.29 150.941Z" fill="#042558"/>
<path d="M455.819 83.5539C449.728 94.6462 443.636 105.739 437.545 116.831C433.662 109.971 429.801 103.099 425.909 96.2448C424.565 93.8775 420.909 96.0067 422.256 98.3799C426.768 106.326 431.233 114.298 435.745 122.244C436.516 123.602 438.634 123.634 439.397 122.244C446.089 110.059 452.781 97.8739 459.472 85.689C460.783 83.3014 457.132 81.1644 455.819 83.5539Z" fill="white"/>
<path d="M503.454 224.217L457.866 202.408C457.866 202.408 456.035 187.812 447.486 182.606C446.033 179.138 444.36 175.329 442.842 172.311C439.085 164.846 444.72 150.76 440.024 150.76C435.329 150.76 428.389 165.574 428.756 169.541C429.038 172.587 431.555 177.903 432.075 182.558C426.349 184.717 421.731 188.418 418.694 191.365C416.066 193.915 415.089 197.72 416.116 201.235C419.093 211.421 426.532 232.458 437.207 232.458C451.293 232.458 455.049 229.641 455.049 229.641C455.049 229.641 484.16 266.264 505.758 269.082C527.356 271.899 503.454 224.217 503.454 224.217Z" fill="#FFB6B6"/>
</svg>
