<svg width="830" height="580" viewBox="0 0 830 580" fill="none" xmlns="http://www.w3.org/2000/svg">
<rect width="830" height="580" rx="20" fill="#031838"/>
<path d="M601.287 420.514L601.278 420.74L612.556 540H530.258L519.59 466.753L514.895 538.122L430.381 537.183L439.358 443.483L446.993 400.052V400.043L448.138 393.507H599.043L599.24 395.873L601.287 420.514Z" fill="#2F2E41"/>
<path d="M383.797 489.65C392.513 491.238 401.601 481.422 404.097 467.725C405.189 461.729 404.836 455.984 403.364 451.286L404.7 443.39L427.128 337.174C427.128 337.174 468.427 254.56 468.426 240.218C468.425 225.876 456.48 218.842 456.48 218.842L440.315 218.993L389.622 342.805L380.493 434.297L379.016 446.85C375.981 450.727 373.625 455.979 372.533 461.974C370.038 475.671 375.081 488.062 383.797 489.65Z" fill="#FFB6B6"/>
<path d="M548.231 167.664L533.206 132.918L484.376 141.37L481.089 182.249L548.231 167.664Z" fill="#FFB6B6"/>
<path opacity="0.1" d="M548.231 167.664L533.206 132.918L484.376 141.37L481.089 182.249L548.231 167.664Z" fill="black"/>
<path d="M654.343 239.971C654.343 239.971 619.599 175.176 613.025 168.602C610.099 165.676 605.499 165.635 601.294 166.488L552.927 149.821L536.533 140.61L535.453 158.135L481.631 167.795C481.93 157.108 483.437 153.043 483.437 153.043L463.717 176.115L425.217 194.896L425.238 195.065C422.412 196.051 419.734 197.739 417.704 200.53C410.192 210.86 389.533 336.694 389.533 336.694L433.668 346.084L439.675 308.391L443.998 342.328L447.284 405.715C447.284 405.715 507.383 457.363 536.493 438.582C565.604 419.8 601.287 420.74 601.287 420.74L602.178 391.358C602.812 390.345 603.166 389.751 603.166 389.751L602.226 285.53V257.798C609.38 267.764 618.013 276.336 628.05 280.35C660.917 293.497 654.343 239.971 654.343 239.971Z" fill="#E6E6E6"/>
<path d="M503.687 147.483C528.497 147.483 548.61 127.37 548.61 102.56C548.61 77.7495 528.497 57.6367 503.687 57.6367C478.877 57.6367 458.765 77.7495 458.765 102.56C458.765 127.37 478.877 147.483 503.687 147.483Z" fill="#FFB6B6"/>
<path d="M535.915 115.256C535.915 115.256 539.821 101.583 548.61 102.56C557.399 103.537 559.352 95.7238 557.399 91.8175C555.446 87.9111 551.54 68.3793 551.54 68.3793C551.54 68.3793 553.493 54.7071 541.774 52.7539C530.055 50.8007 526.149 48.8476 524.196 44.9412C522.242 41.0348 492.945 37.1285 483.179 42.988C473.414 48.8476 465.601 60.0899 458.765 63.258C451.929 66.4262 446.07 72.2857 449.976 82.0516C453.882 91.8175 459.547 110.917 459.547 110.917C459.547 110.917 469.507 107.443 471.461 113.302C473.414 119.162 465.601 111.349 475.367 95.7238C485.133 80.0984 485.133 64.473 500.758 70.3325C516.383 76.1921 533.961 74.2389 532.008 85.9579C530.055 97.677 535.915 115.256 535.915 115.256Z" fill="#2F2E41"/>
<path d="M533.167 471.389H191.997C182.349 471.389 174.5 463.539 174.5 453.891V272.659C174.5 263.012 182.349 255.162 191.997 255.162H533.167C542.816 255.162 550.665 263.012 550.665 272.659V453.891C550.665 463.539 542.816 471.389 533.167 471.389Z" fill="white"/>
<path d="M533.167 471.389H191.997C182.349 471.389 174.5 463.539 174.5 453.891V272.659C174.5 263.012 182.349 255.162 191.997 255.162H533.167C542.816 255.162 550.665 263.012 550.665 272.659V453.891C550.665 463.539 542.816 471.389 533.167 471.389ZM191.997 258.084C183.961 258.084 177.422 264.622 177.422 272.659V453.891C177.422 461.928 183.961 468.467 191.997 468.467H533.167C541.204 468.467 547.743 461.928 547.743 453.891V272.659C547.743 264.622 541.204 258.084 533.167 258.084H191.997Z" fill="#3F3D56"/>
<path d="M506.836 277.077C509.256 277.077 511.218 275.114 511.218 272.694C511.218 270.273 509.256 268.311 506.836 268.311C504.415 268.311 502.453 270.273 502.453 272.694C502.453 275.114 504.415 277.077 506.836 277.077Z" fill="#3F3D56"/>
<path d="M518.524 277.077C520.944 277.077 522.906 275.114 522.906 272.694C522.906 270.273 520.944 268.311 518.524 268.311C516.103 268.311 514.141 270.273 514.141 272.694C514.141 275.114 516.103 277.077 518.524 277.077Z" fill="#3F3D56"/>
<path d="M530.211 277.077C532.632 277.077 534.594 275.114 534.594 272.694C534.594 270.273 532.632 268.311 530.211 268.311C527.791 268.311 525.828 270.273 525.828 272.694C525.828 275.114 527.791 277.077 530.211 277.077Z" fill="#3F3D56"/>
<path d="M199.337 343.552C198.128 343.552 197.145 344.535 197.145 345.743C197.145 346.332 197.373 346.878 197.786 347.28C198.202 347.706 198.748 347.935 199.337 347.935H527.289C528.498 347.935 529.481 346.952 529.481 345.743C529.481 345.154 529.253 344.609 528.84 344.207C528.424 343.78 527.878 343.552 527.289 343.552H199.337Z" fill="#E6E6E6"/>
<path d="M486.382 342.821V348.665H199.337C198.533 348.665 197.803 348.344 197.277 347.803C196.736 347.277 196.415 346.547 196.415 345.743C196.415 344.136 197.73 342.821 199.337 342.821H486.382Z" fill="#042558"/>
<path d="M523.637 331.864H494.418C491.195 331.864 488.574 329.243 488.574 326.02C488.574 322.797 491.195 320.176 494.418 320.176H523.637C526.859 320.176 529.481 322.797 529.481 326.02C529.481 329.243 526.859 331.864 523.637 331.864Z" fill="#E6E6E6"/>
<path d="M332.25 301.183H201.528C198.306 301.183 195.684 298.562 195.684 295.339C195.684 292.116 198.306 289.495 201.528 289.495H332.25C335.472 289.495 338.093 292.116 338.093 295.339C338.093 298.562 335.472 301.183 332.25 301.183Z" fill="#E6E6E6"/>
<path d="M199.337 409.296C198.128 409.296 197.145 410.279 197.145 411.488C197.145 412.077 197.373 412.622 197.786 413.024C198.202 413.451 198.748 413.679 199.337 413.679H527.289C528.498 413.679 529.481 412.696 529.481 411.488C529.481 410.899 529.253 410.354 528.84 409.951C528.424 409.525 527.878 409.296 527.289 409.296H199.337Z" fill="#E6E6E6"/>
<path d="M373.887 408.566V414.41H199.337C198.533 414.41 197.803 414.088 197.277 413.548C196.736 413.022 196.415 412.291 196.415 411.488C196.415 409.881 197.73 408.566 199.337 408.566H373.887Z" fill="#042558"/>
<path d="M523.637 397.608H494.418C491.195 397.608 488.574 394.987 488.574 391.764C488.574 388.541 491.195 385.92 494.418 385.92H523.637C526.859 385.92 529.481 388.541 529.481 391.764C529.481 394.987 526.859 397.608 523.637 397.608Z" fill="#E6E6E6"/>
<path d="M574.79 150.941C600.06 150.941 620.546 130.886 620.546 106.148C620.546 81.4094 600.06 61.355 574.79 61.355C549.519 61.355 529.033 81.4094 529.033 106.148C529.033 130.886 549.519 150.941 574.79 150.941Z" fill="#042558"/>
<path d="M590.319 83.5539C584.228 94.6462 578.136 105.739 572.045 116.831C568.162 109.971 564.301 103.099 560.409 96.2448C559.065 93.8775 555.409 96.0067 556.756 98.3799C561.268 106.326 565.733 114.298 570.245 122.244C571.016 123.602 573.134 123.634 573.897 122.244C580.589 110.059 587.281 97.8739 593.972 85.689C595.283 83.3014 591.632 81.1644 590.319 83.5539Z" fill="white"/>
<path d="M637.954 224.217L592.366 202.408C592.366 202.408 590.535 187.812 581.986 182.606C580.533 179.138 578.86 175.329 577.342 172.311C573.585 164.846 579.22 150.76 574.524 150.76C569.829 150.76 562.889 165.574 563.256 169.541C563.538 172.587 566.055 177.903 566.575 182.558C560.849 184.717 556.231 188.418 553.194 191.365C550.566 193.915 549.589 197.72 550.616 201.235C553.593 211.421 561.032 232.458 571.707 232.458C585.793 232.458 589.549 229.641 589.549 229.641C589.549 229.641 618.66 266.264 640.258 269.082C661.856 271.899 637.954 224.217 637.954 224.217Z" fill="#FFB6B6"/>
</svg>
