<svg width="40" height="41" viewBox="0 0 40 41" fill="none" xmlns="http://www.w3.org/2000/svg">
<g clip-path="url(#clip0_6_7)">
<path d="M29.355 26.36C31.7757 23.0567 32.86 18.9612 32.3908 14.8929C31.9216 10.8245 29.9335 7.08335 26.8244 4.41783C23.7153 1.75231 19.7144 0.359016 15.6221 0.516699C11.5298 0.674382 7.64796 2.37141 4.75317 5.26828C1.85838 8.16514 0.164128 12.0482 0.00937329 16.1406C-0.145381 20.233 1.25077 24.2329 3.91852 27.3401C6.58627 30.4473 10.3289 32.4327 14.3975 32.899C18.4662 33.3653 22.561 32.2781 25.8625 29.855H25.86C25.9333 29.955 26.015 30.0508 26.105 30.1425L35.73 39.7675C36.1988 40.2366 36.8347 40.5003 37.4979 40.5005C38.161 40.5007 38.7971 40.2375 39.2663 39.7688C39.7354 39.3 39.999 38.6641 39.9993 38.0009C39.9995 37.3377 39.7363 36.7016 39.2675 36.2325L29.6425 26.6075C29.5532 26.517 29.4571 26.4359 29.355 26.36ZM30 16.75C30 18.5557 29.6443 20.3437 28.9533 22.0119C28.2623 23.6801 27.2495 25.1959 25.9727 26.4727C24.6959 27.7495 23.1801 28.7623 21.5119 29.4534C19.8437 30.1444 18.0557 30.5 16.25 30.5C14.4443 30.5 12.6563 30.1444 10.9881 29.4534C9.31988 28.7623 7.80409 27.7495 6.52728 26.4727C5.25048 25.1959 4.23766 23.6801 3.54666 22.0119C2.85566 20.3437 2.5 18.5557 2.5 16.75C2.5 13.1033 3.94866 9.60591 6.52728 7.02729C9.10591 4.44866 12.6033 3.00001 16.25 3.00001C19.8967 3.00001 23.3941 4.44866 25.9727 7.02729C28.5513 9.60591 30 13.1033 30 16.75Z" fill="#C2E8FF"/>
</g>
<defs>
<clipPath id="clip0_6_7">
<rect width="40" height="40" fill="white" transform="translate(0 0.5)"/>
</clipPath>
</defs>
</svg>
