<svg width="759" height="580" viewBox="0 0 759 580" fill="none" xmlns="http://www.w3.org/2000/svg">
<rect width="758.71" height="579.999" rx="20" fill="#010F21" fill-opacity="0.6"/>
<path d="M370.575 97.4142C386.43 97.4142 399.283 84.5616 399.283 68.7071C399.283 52.8526 386.43 40 370.575 40C354.72 40 341.867 52.8526 341.867 68.7071C341.867 84.5616 354.72 97.4142 370.575 97.4142Z" fill="#FF6884"/>
<path d="M342.224 250.752L309.784 251.199L296.778 106.184C296.463 102.664 297.6 99.1055 299.898 96.4206L331.797 59.155C336.262 53.9389 343.855 52.9977 349.458 56.9679L389.411 85.2742C392.67 87.5834 394.69 91.1939 394.952 95.1798L402.134 204.44L420.204 225.828L420.242 225.874L424.865 249.612L342.224 250.752Z" fill="#E6E6E6"/>
<path d="M335.429 92.8732L334.907 86.1426C334.769 84.366 336.102 82.8083 337.879 82.6705L347.336 81.9366C349.113 81.7987 350.67 83.1319 350.808 84.9086L351.33 91.6392C351.468 93.4158 350.135 94.9734 348.359 95.1113L338.902 95.8452C337.125 95.9831 335.567 94.6499 335.429 92.8732Z" fill="#042558"/>
<path d="M319.494 146.669L317.562 121.767C317.424 119.99 318.757 118.432 320.534 118.295L334.534 117.208C336.31 117.07 337.868 118.403 338.006 120.18L339.938 145.083C340.076 146.859 338.743 148.417 336.967 148.555L322.966 149.641C321.19 149.779 319.632 148.446 319.494 146.669Z" fill="#3F3D56"/>
<path d="M355.664 202.505C353.967 202.577 352.496 201.309 352.315 199.621L349.739 175.606C349.629 174.581 350 173.592 350.756 172.891C351.512 172.19 352.527 171.897 353.541 172.084L354.264 172.218C355.701 172.484 356.784 173.688 356.897 175.145L358.751 199.026C358.819 199.908 358.533 200.759 357.946 201.421C357.385 202.053 356.62 202.433 355.782 202.498C355.743 202.501 355.704 202.504 355.664 202.505Z" fill="#3F3D56"/>
<path d="M326.032 201.464L324.094 176.489C323.957 174.726 325.228 173.204 326.987 173.023L339.688 171.726C341.45 171.564 343.041 172.833 343.23 174.597L345.925 199.826C346.019 200.702 345.76 201.557 345.197 202.235C344.634 202.912 343.84 203.323 342.962 203.391L329.504 204.436C327.728 204.573 326.17 203.24 326.032 201.464Z" fill="#3F3D56"/>
<path d="M402.567 212.693L413.917 229.649L416.609 249.499L424.589 249.387L420.03 225.975L401.912 204.529C400.698 207.18 400.946 210.27 402.567 212.693Z" fill="#CCCCCC"/>
<path d="M415.847 243.817L383.512 246.772L383.554 247.226L415.889 244.271L415.847 243.817Z" fill="#3F3D56"/>
<path d="M413.572 239.96L382.9 242.582L382.939 243.036L413.611 240.414L413.572 239.96Z" fill="#3F3D56"/>
<path d="M411.661 235.987L382.348 238.838L382.393 239.292L411.706 236.44L411.661 235.987Z" fill="#3F3D56"/>
<path d="M410.434 231.983L382.314 235.107L382.364 235.56L410.484 232.436L410.434 231.983Z" fill="#3F3D56"/>
<path d="M408.789 228.46L381.776 231.515L381.827 231.968L408.84 228.913L408.789 228.46Z" fill="#3F3D56"/>
<path d="M406.732 225.408L380.349 227.455L380.384 227.909L406.767 225.862L406.732 225.408Z" fill="#3F3D56"/>
<path d="M405.118 222.326L379.502 224.616L379.543 225.07L405.159 222.78L405.118 222.326Z" fill="#3F3D56"/>
<path d="M403.504 219.254L378.723 222.007L378.774 222.46L403.554 219.708L403.504 219.254Z" fill="#3F3D56"/>
<path d="M402.354 216.161L377.854 218.496L377.897 218.95L402.397 216.615L402.354 216.161Z" fill="#3F3D56"/>
<path d="M400.289 213.156L376.855 215.713L376.904 216.166L400.338 213.609L400.289 213.156Z" fill="#3F3D56"/>
<path d="M399.17 210.455L375.904 212.49L375.944 212.943L399.21 210.909L399.17 210.455Z" fill="#3F3D56"/>
<path d="M373.459 203.039L371.068 172.23C370.93 170.454 372.263 168.896 374.04 168.758L388.949 167.601C390.725 167.463 392.283 168.796 392.421 170.573L394.812 201.382C394.95 203.158 393.617 204.716 391.84 204.854L376.931 206.011C375.155 206.149 373.597 204.815 373.459 203.039Z" fill="#042558"/>
<path d="M342.224 250.751L315.703 251.118L315.489 251.121L313.904 230.697C313.703 228.114 315.642 225.849 318.225 225.649L344.292 223.626C346.875 223.426 349.14 225.364 349.34 227.947L351.057 250.066L350.83 250.084L342.224 250.751Z" fill="#CCCCCC"/>
<path d="M370.94 147.019L369.113 123.479C368.975 121.702 370.308 120.145 372.085 120.007L376.999 119.626C378.775 119.488 380.333 120.821 380.47 122.598L382.297 146.138C382.435 147.914 381.102 149.472 379.326 149.609L374.412 149.991C372.635 150.129 371.077 148.795 370.94 147.019Z" fill="#3F3D56"/>
<path d="M383.944 249.799L381.03 229.916L375.46 211.153L373.919 206.016C371.462 204.61 368.456 206.62 368.815 209.428L369.1 211.646L374.669 230.41L377.584 250.293" fill="#CCCCCC"/>
<path d="M228.536 252.262L196.096 252.709L183.09 107.694C182.774 104.174 183.911 100.616 186.21 97.9307L218.109 60.6651C222.574 55.4483 230.166 54.508 235.77 58.478L275.722 86.7843C278.982 89.0935 281.002 92.704 281.264 96.6899L288.446 205.95L306.516 227.338L306.554 227.384L311.177 251.122L228.536 252.262Z" fill="#E6E6E6"/>
<path d="M221.741 94.3835L221.219 87.6528C221.081 85.8762 222.414 84.3186 224.191 84.1807L233.648 83.4468C235.424 83.3089 236.982 84.6422 237.12 86.4188L237.642 93.1495C237.78 94.9261 236.447 96.4837 234.67 96.6216L225.213 97.3555C223.436 97.4934 221.879 96.1601 221.741 94.3835Z" fill="#042558"/>
<path d="M205.806 148.18L203.873 123.277C203.735 121.5 205.069 119.943 206.845 119.805L220.845 118.718C222.622 118.58 224.179 119.914 224.317 121.69L226.25 146.593C226.388 148.37 225.055 149.927 223.278 150.065L209.278 151.152C207.501 151.289 205.944 149.956 205.806 148.18Z" fill="#3F3D56"/>
<path d="M237.377 174.735C236.728 175.337 236.409 176.187 236.504 177.068L239.08 201.082C239.236 202.533 240.499 203.621 241.957 203.56C242.723 203.531 243.413 203.197 243.917 202.629C244.421 202.06 244.667 201.33 244.608 200.572L242.754 176.691C242.657 175.439 241.727 174.405 240.492 174.176L239.77 174.042C239.525 173.997 239.28 173.984 239.04 174.003C238.426 174.051 237.845 174.303 237.377 174.735Z" fill="#3F3D56"/>
<path d="M198.977 206.445C198.295 205.882 197.882 205.085 197.813 204.203L195.96 180.322C195.847 178.865 196.731 177.509 198.11 177.024L198.804 176.78C199.775 176.439 200.825 176.572 201.68 177.147C202.536 177.723 203.054 178.644 203.104 179.673L204.264 203.798C204.345 205.494 203.088 206.973 201.4 207.164C201.361 207.169 201.321 207.172 201.282 207.175C200.444 207.24 199.63 206.983 198.977 206.445Z" fill="#3F3D56"/>
<path d="M288.879 214.203L300.228 231.159L302.921 251.01L310.901 250.898L306.342 227.485L288.224 206.04C287.009 208.69 287.257 211.781 288.879 214.203Z" fill="#CCCCCC"/>
<path d="M302.159 245.327L269.824 248.282L269.865 248.736L302.2 245.781L302.159 245.327Z" fill="#3F3D56"/>
<path d="M299.884 241.47L269.211 244.092L269.25 244.546L299.923 241.925L299.884 241.47Z" fill="#3F3D56"/>
<path d="M297.973 237.497L268.66 240.349L268.704 240.802L298.017 237.951L297.973 237.497Z" fill="#3F3D56"/>
<path d="M296.745 233.493L268.625 236.617L268.676 237.07L296.796 233.946L296.745 233.493Z" fill="#3F3D56"/>
<path d="M295.101 229.971L268.087 233.025L268.139 233.478L295.152 230.424L295.101 229.971Z" fill="#3F3D56"/>
<path d="M293.043 226.918L266.661 228.965L266.696 229.42L293.078 227.372L293.043 226.918Z" fill="#3F3D56"/>
<path d="M291.43 223.836L265.814 226.126L265.854 226.58L291.471 224.29L291.43 223.836Z" fill="#3F3D56"/>
<path d="M289.816 220.765L265.035 223.518L265.085 223.971L289.866 221.218L289.816 220.765Z" fill="#3F3D56"/>
<path d="M288.665 217.671L264.165 220.007L264.209 220.46L288.709 218.125L288.665 217.671Z" fill="#3F3D56"/>
<path d="M286.6 214.666L263.167 217.223L263.216 217.677L286.65 215.12L286.6 214.666Z" fill="#3F3D56"/>
<path d="M285.482 211.965L262.216 214L262.256 214.454L285.522 212.419L285.482 211.965Z" fill="#3F3D56"/>
<path d="M259.771 204.549L257.38 173.741C257.242 171.964 258.575 170.406 260.352 170.268L275.26 169.111C277.037 168.973 278.594 170.307 278.732 172.084L281.123 202.892C281.261 204.669 279.928 206.226 278.152 206.364L263.243 207.521C261.466 207.659 259.909 206.326 259.771 204.549Z" fill="#042558"/>
<path d="M228.536 252.262L202.014 252.629L201.8 252.631L200.215 232.207C200.015 229.624 201.953 227.36 204.536 227.159L230.604 225.136C233.187 224.936 235.451 226.874 235.652 229.457L237.369 251.577L237.141 251.594L228.536 252.262Z" fill="#CCCCCC"/>
<path d="M257.251 148.529L255.424 124.989C255.286 123.213 256.62 121.655 258.396 121.517L263.31 121.136C265.087 120.998 266.644 122.331 266.782 124.108L268.609 147.648C268.747 149.424 267.414 150.982 265.637 151.12L260.723 151.501C258.947 151.639 257.389 150.306 257.251 148.529Z" fill="#3F3D56"/>
<path d="M270.256 251.31L267.341 231.426L261.772 212.663L260.23 207.527C257.773 206.121 254.767 208.13 255.127 210.938L255.411 213.156L260.981 231.92L263.895 251.803" fill="#CCCCCC"/>
<path d="M114.847 253.772L82.4076 254.219L69.4016 109.205C69.0861 105.685 70.223 102.126 72.5212 99.441L104.42 62.1755C108.885 56.9589 116.478 56.0186 122.081 59.9884L162.034 88.2947C165.293 90.6039 167.313 94.2143 167.575 98.2002L174.758 207.46L192.828 228.849L192.865 228.894L197.488 252.632L114.847 253.772Z" fill="#E6E6E6"/>
<path d="M108.053 95.8938L107.53 89.1631C107.392 87.3865 108.726 85.8289 110.502 85.691L119.959 84.9571C121.736 84.8192 123.293 86.1525 123.431 87.9291L123.954 94.6598C124.091 96.4364 122.758 97.994 120.982 98.1318L111.525 98.8657C109.748 99.0036 108.19 97.6704 108.053 95.8938Z" fill="#042558"/>
<path d="M92.1174 149.69L90.1847 124.787C90.0468 123.011 91.3801 121.453 93.157 121.315L107.157 120.229C108.933 120.091 110.491 121.424 110.629 123.201L112.562 148.103C112.699 149.88 111.366 151.438 109.59 151.575L95.5898 152.662C93.8129 152.8 92.2553 151.467 92.1174 149.69Z" fill="#3F3D56"/>
<path d="M84.4976 178.749L85.1909 178.505C87.0875 177.838 89.0911 179.187 89.1876 181.195L90.3477 205.319C90.4238 206.901 89.259 208.27 87.6856 208.448C85.9957 208.64 84.4839 207.392 84.3523 205.696L82.4989 181.815C82.3936 180.458 83.2137 179.2 84.4976 178.749Z" fill="#3F3D56"/>
<path d="M98.6552 204.484L96.7169 179.509C96.5801 177.746 97.851 176.224 99.6107 176.044L112.311 174.746C114.082 174.58 115.665 175.854 115.853 177.618L118.549 202.846C118.642 203.722 118.384 204.578 117.82 205.255C117.257 205.933 116.463 206.343 115.585 206.412L102.128 207.456C100.351 207.594 98.7931 206.261 98.6552 204.484Z" fill="#3F3D56"/>
<path d="M175.19 215.713L186.54 232.669L189.232 252.52L197.213 252.408L192.653 228.996L174.535 207.55C173.321 210.2 173.569 213.291 175.19 215.713Z" fill="#CCCCCC"/>
<path d="M188.47 246.838L156.135 249.792L156.177 250.246L188.512 247.291L188.47 246.838Z" fill="#3F3D56"/>
<path d="M186.196 242.98L155.523 245.602L155.562 246.056L186.234 243.435L186.196 242.98Z" fill="#3F3D56"/>
<path d="M184.285 239.007L154.972 241.859L155.016 242.312L184.329 239.461L184.285 239.007Z" fill="#3F3D56"/>
<path d="M183.057 235.003L154.937 238.127L154.987 238.58L183.107 235.456L183.057 235.003Z" fill="#3F3D56"/>
<path d="M181.412 231.481L154.399 234.535L154.45 234.988L181.464 231.934L181.412 231.481Z" fill="#3F3D56"/>
<path d="M179.355 228.428L152.972 230.476L153.007 230.93L179.39 228.882L179.355 228.428Z" fill="#3F3D56"/>
<path d="M177.742 225.346L152.125 227.636L152.166 228.09L177.782 225.8L177.742 225.346Z" fill="#3F3D56"/>
<path d="M176.127 222.275L151.347 225.028L151.397 225.481L176.178 222.728L176.127 222.275Z" fill="#3F3D56"/>
<path d="M174.977 219.182L150.477 221.517L150.52 221.971L175.02 219.635L174.977 219.182Z" fill="#3F3D56"/>
<path d="M172.912 216.177L149.478 218.734L149.528 219.187L172.961 216.63L172.912 216.177Z" fill="#3F3D56"/>
<path d="M171.793 213.476L148.527 215.51L148.567 215.964L171.833 213.93L171.793 213.476Z" fill="#3F3D56"/>
<path d="M146.082 206.06L143.691 175.251C143.553 173.474 144.887 171.916 146.663 171.779L161.572 170.622C163.348 170.484 164.906 171.817 165.044 173.594L167.435 204.403C167.573 206.179 166.24 207.737 164.463 207.874L149.555 209.031C147.778 209.169 146.22 207.836 146.082 206.06Z" fill="#042558"/>
<path d="M114.847 253.772L88.3256 254.139L88.1121 254.142L86.527 233.718C86.3265 231.135 88.265 228.87 90.8481 228.67L116.916 226.647C119.499 226.446 121.763 228.385 121.963 230.968L123.68 253.087L123.453 253.104L114.847 253.772Z" fill="#CCCCCC"/>
<path d="M143.563 150.039L141.736 126.499C141.598 124.723 142.931 123.165 144.708 123.027L149.622 122.646C151.398 122.508 152.956 123.841 153.094 125.618L154.921 149.158C155.058 150.934 153.725 152.492 151.949 152.63L147.035 153.011C145.258 153.149 143.701 151.816 143.563 150.039Z" fill="#3F3D56"/>
<path d="M156.567 252.82L153.653 232.936L148.083 214.173L146.542 209.037C144.085 207.631 141.079 209.64 141.439 212.448L141.723 214.667L147.292 233.43L150.207 253.314" fill="#CCCCCC"/>
<path d="M455.443 249.003L40 254.388L40.0118 255.3L455.455 249.914L455.443 249.003Z" fill="#CCCCCC"/>
<path d="M177.841 439.486C176.911 437.919 172.889 439.597 172.149 438.174C171.412 436.757 175.15 434.596 177.285 429.661C177.67 428.772 180.097 423.163 178.3 421.433C174.895 418.153 159.314 431.689 153.861 427.259C152.664 426.287 151.828 424.346 148.206 421.196C146.765 419.942 145.894 419.376 145.051 419.587C143.854 419.885 143.76 421.487 142.477 424.635C140.553 429.357 139.415 429.072 138.294 432.839C137.461 435.635 137.651 437.261 136.672 437.578C135.286 438.026 134.011 435.06 132.255 435.326C130.463 435.597 129.379 439.05 129.037 441.636C128.395 446.489 130.177 449.691 131.165 453.057C132.238 456.716 132.875 462.281 130.396 470.158L105.861 539.283C111.278 525.099 126.961 486.216 133.551 471.767C135.454 467.596 137.555 463.365 141.868 461.695C146.02 460.088 151.723 461.047 158.994 459.296C159.843 459.091 162.199 458.492 162.496 457.106C162.741 455.96 161.355 455.321 161.568 454.247C161.854 452.808 164.579 452.79 167.929 451.13C170.291 449.959 171.762 448.566 173.027 447.368C173.409 447.007 179.079 441.574 177.841 439.486Z" fill="#F2F2F2"/>
<path d="M81.3138 475.877C80.276 475.881 79.9393 478.339 79.0275 478.292C78.119 478.244 78.1371 475.787 76.3311 473.315C76.0054 472.869 73.953 470.06 72.5853 470.442C69.9929 471.167 72.1409 482.72 68.3934 484.118C67.5709 484.425 66.3772 484.276 63.7857 485.144C62.7547 485.49 62.2255 485.754 62.0856 486.228C61.887 486.902 62.6456 487.41 63.8207 488.948C65.583 491.255 65.1147 491.731 66.6402 493.368C67.7727 494.584 68.6256 494.96 68.4985 495.532C68.3186 496.341 66.4947 496.111 66.1184 497.05C65.7343 498.008 67.1168 499.536 68.2873 500.45C70.4837 502.165 72.5694 502.214 74.507 502.701C76.6125 503.23 79.5275 504.523 82.6786 508.012L109.528 539.999C104.129 533.248 89.5692 514.331 84.3787 506.928C82.8803 504.791 81.4099 502.539 81.8348 499.94C82.2439 497.438 84.3605 494.916 85.5986 490.843C85.7432 490.367 86.1289 489.037 85.5342 488.492C85.0426 488.041 84.3288 488.537 83.8635 488.123C83.2394 487.567 84.0172 486.224 84.1685 484.101C84.2751 482.604 84.0161 481.48 83.7934 480.514C83.7263 480.222 82.6954 475.871 81.3138 475.877Z" fill="#F2F2F2"/>
<path d="M102.019 480.524L101.393 474.943L101.679 474.52C103.001 472.563 103.675 470.652 103.683 468.838C103.684 468.55 103.671 468.261 103.657 467.968C103.603 466.803 103.536 465.356 104.291 463.669C104.714 462.728 105.903 460.551 107.689 460.82C108.171 460.888 108.534 461.109 108.811 461.367C108.851 461.303 108.893 461.238 108.937 461.168C109.494 460.319 109.935 459.955 110.359 459.605C110.685 459.335 111.022 459.058 111.55 458.4C111.782 458.112 111.963 457.858 112.115 457.645C112.577 457.001 113.181 456.233 114.246 456.247C115.383 456.3 115.979 457.241 116.373 457.864C117.078 458.974 117.398 459.774 117.609 460.305C117.686 460.499 117.774 460.718 117.818 460.785C118.185 461.324 121.164 460.82 122.287 460.637C124.808 460.216 126.99 459.853 127.889 461.443C128.533 462.58 128.055 464.084 126.424 466.033C125.916 466.639 125.375 467.1 124.896 467.461C125.293 467.698 125.649 468.062 125.793 468.633C126.133 469.986 124.97 471.342 122.338 472.668C121.684 473 120.804 473.442 119.571 473.655C118.991 473.754 118.468 473.778 118.02 473.792C118.011 474.051 117.95 474.331 117.793 474.619C117.33 475.468 116.368 475.873 114.918 475.776C113.322 475.692 112.009 475.387 110.85 475.121C109.838 474.889 108.966 474.692 108.281 474.738C107.012 474.84 106.033 475.856 104.885 477.174L102.019 480.524Z" fill="#F2F2F2"/>
<path d="M104.919 447.291L99.6787 449.312L99.1969 449.143C96.9688 448.36 94.9495 448.193 93.1929 448.646C92.9136 448.718 92.638 448.804 92.3573 448.891C91.2447 449.239 89.8618 449.671 88.0384 449.369C87.0211 449.198 84.6132 448.601 84.4206 446.804C84.3638 446.322 84.4852 445.914 84.6655 445.581C84.5926 445.558 84.5195 445.534 84.4404 445.509C83.478 445.186 83.0143 444.852 82.5677 444.53C82.2242 444.283 81.8702 444.028 81.1001 443.684C80.7624 443.532 80.4715 443.422 80.2269 443.329C79.4866 443.045 78.5904 442.656 78.3335 441.623C78.0971 440.509 78.8559 439.694 79.358 439.154C80.2533 438.191 80.9466 437.679 81.4065 437.34C81.5747 437.216 81.7637 437.076 81.8176 437.016C82.246 436.525 81.0028 433.77 80.5408 432.731C79.4945 430.399 78.5891 428.381 79.8993 427.108C80.8361 426.196 82.4122 426.278 84.7108 427.361C85.4262 427.698 86.0091 428.104 86.4801 428.477C86.6087 428.032 86.8704 427.596 87.3866 427.311C88.6092 426.639 90.2155 427.421 92.1658 429.63C92.6523 430.178 93.3031 430.917 93.8218 432.056C94.0655 432.592 94.2216 433.092 94.3482 433.521C94.6009 433.465 94.8873 433.452 95.2063 433.532C96.1448 433.763 96.7799 434.592 97.0538 436.019C97.3777 437.583 97.4164 438.931 97.4523 440.12C97.4848 441.158 97.5156 442.051 97.7336 442.702C98.1547 443.904 99.3857 444.592 100.952 445.369L104.919 447.291Z" fill="#F2F2F2"/>
<path d="M102.019 430.848L101.393 425.266L101.679 424.843C103.001 422.886 103.675 420.975 103.683 419.161C103.684 418.873 103.671 418.585 103.657 418.291C103.603 417.127 103.536 415.679 104.291 413.992C104.714 413.052 105.903 410.874 107.689 411.143C108.171 411.211 108.534 411.432 108.811 411.69C108.851 411.626 108.893 411.561 108.937 411.491C109.494 410.642 109.935 410.278 110.359 409.928C110.685 409.658 111.022 409.381 111.55 408.723C111.782 408.435 111.963 408.181 112.115 407.969C112.577 407.324 113.181 406.556 114.246 406.57C115.383 406.624 115.979 407.564 116.373 408.187C117.078 409.297 117.398 410.098 117.609 410.629C117.686 410.823 117.774 411.041 117.818 411.108C118.185 411.647 121.164 411.143 122.287 410.96C124.808 410.54 126.99 410.176 127.889 411.766C128.533 412.903 128.055 414.407 126.424 416.356C125.916 416.962 125.375 417.423 124.896 417.784C125.293 418.021 125.649 418.385 125.793 418.957C126.133 420.31 124.97 421.665 122.338 422.991C121.684 423.323 120.804 423.765 119.571 423.978C118.991 424.077 118.468 424.102 118.02 424.115C118.011 424.374 117.95 424.654 117.793 424.943C117.33 425.792 116.368 426.196 114.918 426.099C113.322 426.015 112.009 425.711 110.85 425.444C109.838 425.212 108.966 425.015 108.281 425.061C107.012 425.164 106.033 426.18 104.885 427.498L102.019 430.848Z" fill="#F2F2F2"/>
<path d="M107.73 539.192L106.56 538.459L105.196 538.616C105.175 538.489 105.101 538.198 104.989 537.742C104.378 535.247 102.517 527.652 100.965 515.691C99.8814 507.341 99.2682 498.757 99.1416 490.173C99.0149 481.576 99.4219 475.067 99.748 469.835C99.9946 465.89 100.294 462.133 100.588 458.473C101.369 448.695 102.106 439.458 101.558 429.233C101.437 426.95 101.182 422.199 98.4058 417.143C96.7954 414.21 94.5772 411.607 91.8119 409.408L93.5314 407.246C96.5838 409.677 99.0378 412.561 100.826 415.817C103.904 421.423 104.182 426.6 104.315 429.088C104.873 439.494 104.128 448.819 103.338 458.691C103.047 462.338 102.748 466.078 102.502 470.008C102.179 475.191 101.776 481.643 101.901 490.13C102.025 498.612 102.632 507.09 103.701 515.335C105.234 527.145 107.068 534.627 107.671 537.085C107.991 538.397 108.059 538.672 107.73 539.192Z" fill="#F2F2F2"/>
<path d="M86.7503 413.793C86.6371 413.793 86.5225 413.79 86.4067 413.782C84.0564 413.655 81.88 412.248 79.9368 409.602C79.0258 408.357 78.5595 406.936 77.6297 404.104C77.4855 403.667 76.7847 401.452 76.3589 398.403C76.0799 396.412 76.1149 395.579 76.5098 394.843C76.9478 394.024 77.6566 393.452 78.4544 393.067C78.4194 392.803 78.4476 392.531 78.5622 392.253C79.0325 391.102 80.2831 391.253 80.9596 391.326C81.3019 391.369 81.7291 391.426 82.19 391.401C82.915 391.366 83.3045 391.151 83.8947 390.827C84.4594 390.517 85.1615 390.132 86.2032 389.919C88.2569 389.491 89.9778 390.073 90.5452 390.264C93.5301 391.259 95.0017 393.579 96.7051 396.266C97.0447 396.805 98.2103 398.767 98.9798 401.457C99.535 403.397 99.4569 404.26 99.2898 404.901C98.9502 406.219 98.1484 406.974 96.1121 408.64C93.9856 410.383 92.9183 411.257 92.0019 411.787C89.8687 413.019 88.5291 413.793 86.7503 413.793Z" fill="#F2F2F2"/>
<path d="M703.465 537.938C703.465 538.449 703.051 538.863 702.54 538.863H61.3367V537.012H702.54C703.051 537.012 703.465 537.427 703.465 537.938Z" fill="#E6E6E6"/>
<path d="M518.358 245.501C518.358 245.501 483.843 249.652 489.665 222.363C495.487 195.074 528.497 144.67 528.497 144.67L547.23 155.175L525.723 206.009L534.982 213.313L518.358 245.501Z" fill="#A0616A"/>
<path d="M631.465 212.279L626.602 252.279L504.729 251.682L529.206 209.143L631.465 212.279Z" fill="#042558"/>
<path d="M559.04 146.796C566.498 136.38 567.097 124.035 560.377 119.224C553.657 114.412 542.163 118.955 534.704 129.371C527.246 139.787 526.648 152.131 533.368 156.943C540.088 161.755 551.582 157.212 559.04 146.796Z" fill="#A0616A"/>
<path d="M627.229 364.78H619.747V538.374H627.229V364.78Z" fill="#3F3D56"/>
<path d="M591.312 364.78H583.83V538.373H591.312V364.78Z" fill="#3F3D56"/>
<path d="M390.028 255.535H382.545V538.373H390.028V255.535Z" fill="#E6E6E6"/>
<path d="M510.499 364.78H503.017V538.374H510.499V364.78Z" fill="#3F3D56"/>
<path d="M481.864 364.78H474.382V538.374H481.864V364.78Z" fill="#3F3D56"/>
<path d="M613.012 361.038H468.514L440.795 400.355L584.578 408.926L613.012 361.038Z" fill="#3F3D56"/>
<path d="M348.421 226.521L349.077 198.008L261.867 204.716L261.421 224.037L348.421 226.521Z" fill="#A0616A"/>
<path d="M289.397 201.309L285.226 211.344L279.236 211.535C279.236 211.535 286.249 213.683 288.198 226.428L282.442 228.153C282.442 228.153 276.915 233.31 266.582 232.81L238.877 230.492L238.771 220.834L257.919 218.622C257.919 218.622 262.185 215.815 241.064 204.275C241.064 204.275 234.068 199.997 240.36 178.869C241.225 175.966 243.837 173.88 246.867 173.815C248.538 173.778 250.105 174.379 250.73 176.455C252.322 181.741 250.711 187.01 255.086 190.309C259.46 193.608 289.397 201.309 289.397 201.309Z" fill="#2F2E41"/>
<path d="M602.198 335.527C602.198 335.527 572.107 386.705 504.018 377.482C487.815 375.287 473.559 365.654 465.438 351.462C449.74 324.033 425.904 276.005 433.631 248.81L318.473 226.832L309.399 198.865L434.03 182.676C445.054 181.244 455.853 186.605 461.377 196.252L522.088 302.273L540.187 304.249L602.198 335.527Z" fill="#2F2E41"/>
<path d="M350.694 238.193L349.054 209.72L262.666 223.422L263.776 242.716L350.694 238.193Z" fill="#A0616A"/>
<path d="M289.833 217.812L286.483 228.149L280.528 228.822C280.528 228.822 287.691 230.398 290.659 242.945L285.061 245.128C285.061 245.128 279.966 250.713 269.626 251.045L241.825 250.964L240.942 241.346L259.85 237.6C259.85 237.6 263.877 234.459 241.896 224.656C241.896 224.656 234.578 220.954 239.15 199.39C239.779 196.426 242.215 194.137 245.229 193.827C246.892 193.657 248.502 194.129 249.292 196.149C251.304 201.289 250.123 206.671 254.749 209.607C259.374 212.544 289.833 217.812 289.833 217.812Z" fill="#2F2E41"/>
<path d="M612.419 326.43C612.419 326.43 586.543 379.862 517.933 376.147C501.606 375.262 486.621 366.807 477.384 353.315C459.531 327.238 431.907 281.284 437.422 253.555L320.868 240.912L309.574 213.766L432.499 187.603C443.372 185.289 454.567 189.763 460.849 198.934L529.893 299.728L548.092 300.242L612.419 326.43Z" fill="#2F2E41"/>
<path d="M533.543 100.8L527.556 105.289L558.984 148.688L564.97 147.191L533.543 100.8Z" fill="#3F3D56"/>
<path d="M615.257 197.172L649.678 195.675L664.643 263.018C664.643 263.018 633.216 381.241 595.802 376.752C595.802 376.752 572.606 359.542 572.606 353.556C572.606 347.57 541.178 332.605 541.178 332.605L533.696 307.164L556.144 272.745C556.144 272.745 565.123 245.808 595.054 230.843L615.257 197.172Z" fill="#042558"/>
<path d="M418.462 249.549H112.419V257.031H262.074V538.373H269.556V257.031H418.462V249.549Z" fill="#E6E6E6"/>
<path d="M633.216 191.186C655.532 191.186 673.622 173.095 673.622 150.78C673.622 128.465 655.532 110.375 633.216 110.375C610.9 110.375 592.809 128.465 592.809 150.78C592.809 173.095 610.9 191.186 633.216 191.186Z" fill="#A0616A"/>
<path d="M492.329 202.409L464.107 213.633L519.479 286.961L538.934 271.996L492.329 202.409Z" fill="#E6E6E6"/>
<path d="M602.537 343.08C602.537 343.08 592.061 376.227 569.613 359.654C547.165 343.08 514.895 292.199 514.895 292.199L532.199 279.479L569.613 320.061L580.088 314.647L602.537 343.08Z" fill="#A0616A"/>
<path d="M618.999 226.353L653.419 247.304L602.537 358.045L569.613 313.15L618.999 226.353Z" fill="#042558"/>
<path d="M528.084 292.833C535.241 288.7 535.851 276.357 529.446 265.262C523.04 254.168 512.045 248.524 504.887 252.657C497.729 256.789 497.12 269.133 503.525 280.227C509.931 291.322 520.926 296.965 528.084 292.833Z" fill="#A0616A"/>
<path d="M637.635 273.116C648.004 239.12 659.133 228.361 670.834 235.097C679.739 240.224 682.42 251.894 677.201 260.746C663.897 283.309 636.484 335.005 642.195 369.269C642.195 369.269 651.174 417.157 579.34 417.157C507.506 417.157 438.665 400.695 438.665 400.695L476.079 394.709L561.162 400.787C580.601 402.175 596.985 385.543 594.388 366.228C594.302 365.59 594.2 364.946 594.082 364.294C589.816 340.835 637.635 273.116 637.635 273.116Z" fill="#3F3D56"/>
<path d="M618.071 134.03C614.77 143.272 622.023 152.869 631.816 152.216L632.049 152.2C638.631 160.429 638.813 172.068 632.491 180.497C631.971 191.362 633.673 202.219 637.493 212.403L648.224 241.018L664.744 233.309L672.584 254.234L718.71 230.473L690.755 167.575L682.224 133.452C676.154 109.174 651.389 94.5614 627.203 100.986L608.646 105.915C593.986 109.809 585.548 125.157 590.116 139.621L618.071 134.03Z" fill="#2F2E41"/>
</svg>
