<svg width="835" height="590" viewBox="0 0 835 590" fill="none" xmlns="http://www.w3.org/2000/svg">
<rect width="835" height="589.676" rx="20" fill="#010F21" fill-opacity="0.6"/>
<path d="M506.137 203.245V221.345C504.28 225.707 502.458 231.376 500.675 238.476C500.675 238.476 503.407 249.553 506.137 262.937V301.221H437.952L433.216 309.379H420.234V345.238H441.401V427.775H445.798V345.238H458.227V427.775H462.624V345.238H505.715V427.775H510.113V345.238H526.821V427.775H531.218L531.043 345.238H535.665V203.245H506.137Z" fill="#CCCCCC"/>
<path d="M351.031 373.777C350.616 372.927 348.82 373.837 348.49 373.066C348.161 372.297 349.83 371.125 350.783 368.45C350.955 367.967 352.038 364.926 351.236 363.988C349.716 362.209 342.759 369.549 340.325 367.147C339.79 366.62 339.417 365.568 337.8 363.859C337.157 363.18 336.768 362.873 336.391 362.987C335.857 363.149 335.815 364.017 335.242 365.724C334.383 368.284 333.875 368.13 333.374 370.172C333.003 371.689 333.088 372.57 332.65 372.742C332.032 372.985 331.462 371.377 330.678 371.521C329.878 371.668 329.394 373.54 329.241 374.942C328.955 377.574 329.75 379.31 330.191 381.135C330.671 383.119 330.955 386.136 329.848 390.408L318.894 427.889C321.312 420.198 328.315 399.115 331.257 391.28C332.106 389.018 333.044 386.724 334.97 385.819C336.824 384.947 339.37 385.468 342.616 384.518C342.995 384.407 344.047 384.082 344.18 383.33C344.289 382.709 343.671 382.362 343.766 381.781C343.893 381 345.11 380.99 346.606 380.09C347.66 379.455 348.317 378.7 348.882 378.051C349.052 377.855 351.584 374.909 351.031 373.777Z" fill="#F2F2F2"/>
<path d="M307.934 393.508C307.471 393.51 307.321 394.843 306.914 394.818C306.508 394.792 306.516 393.459 305.71 392.119C305.564 391.877 304.648 390.354 304.037 390.562C302.88 390.955 303.839 397.219 302.166 397.977C301.798 398.143 301.265 398.062 300.108 398.533C299.648 398.72 299.412 398.864 299.349 399.121C299.261 399.486 299.599 399.762 300.124 400.596C300.911 401.847 300.702 402.105 301.383 402.993C301.889 403.651 302.269 403.855 302.213 404.165C302.132 404.604 301.318 404.48 301.15 404.989C300.978 405.508 301.596 406.337 302.118 406.832C303.099 407.762 304.03 407.789 304.895 408.053C305.835 408.34 307.137 409.041 308.544 410.933L320.531 428.276C318.12 424.616 311.62 414.359 309.303 410.345C308.634 409.186 307.977 407.965 308.167 406.556C308.35 405.199 309.295 403.832 309.847 401.623C309.912 401.365 310.084 400.644 309.819 400.348C309.599 400.104 309.28 400.373 309.073 400.148C308.794 399.847 309.141 399.119 309.209 397.968C309.256 397.156 309.141 396.546 309.041 396.022C309.011 395.864 308.551 393.505 307.934 393.508Z" fill="#F2F2F2"/>
<path d="M317.179 396.028L316.899 393.002L317.027 392.773C317.617 391.712 317.918 390.675 317.922 389.692C317.922 389.536 317.916 389.379 317.91 389.22C317.886 388.589 317.856 387.804 318.193 386.889C318.382 386.379 318.913 385.198 319.71 385.344C319.925 385.381 320.088 385.501 320.211 385.641C320.229 385.606 320.248 385.571 320.268 385.533C320.516 385.073 320.713 384.875 320.902 384.685C321.048 384.539 321.198 384.389 321.434 384.032C321.538 383.876 321.618 383.738 321.686 383.623C321.893 383.274 322.162 382.857 322.638 382.865C323.145 382.894 323.411 383.404 323.588 383.741C323.902 384.343 324.045 384.778 324.139 385.065C324.174 385.171 324.213 385.289 324.233 385.326C324.396 385.618 325.727 385.345 326.228 385.245C327.353 385.017 328.328 384.82 328.729 385.682C329.016 386.299 328.803 387.114 328.075 388.171C327.848 388.5 327.607 388.749 327.393 388.945C327.57 389.074 327.729 389.271 327.793 389.581C327.945 390.315 327.426 391.05 326.251 391.769C325.959 391.948 325.566 392.188 325.015 392.303C324.756 392.358 324.523 392.371 324.323 392.378C324.319 392.518 324.292 392.67 324.221 392.827C324.015 393.287 323.585 393.506 322.938 393.454C322.225 393.408 321.639 393.243 321.121 393.098C320.67 392.973 320.28 392.866 319.975 392.891C319.408 392.947 318.971 393.497 318.458 394.212L317.179 396.028Z" fill="#F2F2F2"/>
<path d="M318.473 378.009L316.134 379.104L315.919 379.013C314.924 378.588 314.022 378.498 313.238 378.743C313.113 378.782 312.99 378.829 312.865 378.876C312.368 379.065 311.751 379.299 310.937 379.135C310.482 379.043 309.407 378.719 309.321 377.745C309.296 377.483 309.35 377.262 309.431 377.081C309.398 377.069 309.365 377.056 309.33 377.042C308.9 376.867 308.693 376.686 308.494 376.512C308.341 376.378 308.183 376.239 307.839 376.052C307.688 375.971 307.558 375.911 307.449 375.86C307.118 375.706 306.718 375.495 306.604 374.935C306.498 374.331 306.837 373.889 307.061 373.597C307.461 373.074 307.77 372.797 307.976 372.613C308.051 372.546 308.135 372.47 308.159 372.437C308.35 372.171 307.795 370.677 307.589 370.114C307.122 368.849 306.718 367.755 307.303 367.065C307.721 366.571 308.425 366.615 309.451 367.202C309.77 367.385 310.031 367.605 310.241 367.807C310.298 367.566 310.415 367.329 310.646 367.175C311.191 366.811 311.909 367.234 312.779 368.432C312.997 368.73 313.287 369.13 313.519 369.748C313.628 370.039 313.697 370.309 313.754 370.542C313.867 370.512 313.994 370.505 314.137 370.548C314.556 370.674 314.839 371.123 314.962 371.897C315.106 372.745 315.124 373.476 315.14 374.12C315.154 374.683 315.168 375.167 315.265 375.52C315.453 376.172 316.003 376.545 316.702 376.966L318.473 378.009Z" fill="#F2F2F2"/>
<path d="M317.179 369.093L316.899 366.066L317.027 365.837C317.617 364.776 317.918 363.74 317.922 362.756C317.922 362.6 317.916 362.443 317.91 362.284C317.886 361.653 317.856 360.868 318.193 359.953C318.382 359.443 318.913 358.263 319.71 358.409C319.925 358.445 320.088 358.565 320.211 358.705C320.229 358.67 320.248 358.635 320.268 358.597C320.516 358.137 320.713 357.94 320.902 357.75C321.048 357.603 321.198 357.453 321.434 357.096C321.538 356.94 321.618 356.803 321.686 356.687C321.893 356.338 322.162 355.921 322.638 355.929C323.145 355.958 323.411 356.468 323.588 356.806C323.902 357.408 324.045 357.842 324.139 358.13C324.174 358.235 324.213 358.353 324.233 358.39C324.396 358.682 325.727 358.409 326.228 358.309C327.353 358.081 328.328 357.884 328.729 358.746C329.016 359.363 328.803 360.178 328.075 361.235C327.848 361.564 327.607 361.814 327.393 362.01C327.57 362.138 327.729 362.335 327.793 362.645C327.945 363.379 327.426 364.114 326.251 364.833C325.959 365.013 325.566 365.252 325.015 365.368C324.756 365.422 324.523 365.435 324.323 365.442C324.319 365.583 324.292 365.735 324.221 365.891C324.015 366.351 323.585 366.57 322.938 366.518C322.225 366.472 321.639 366.307 321.121 366.163C320.67 366.037 320.28 365.93 319.975 365.955C319.408 366.011 318.971 366.562 318.458 367.276L317.179 369.093Z" fill="#F2F2F2"/>
<path d="M319.728 427.839L319.206 427.442L318.597 427.526C318.588 427.458 318.555 427.3 318.505 427.053C318.232 425.7 317.401 421.582 316.708 415.096C316.224 410.569 315.951 405.915 315.894 401.26C315.837 396.598 316.019 393.069 316.165 390.233C316.275 388.093 316.408 386.056 316.54 384.072C316.889 378.77 317.218 373.762 316.973 368.217C316.919 366.98 316.805 364.403 315.565 361.662C314.846 360.072 313.856 358.66 312.621 357.468L313.389 356.296C314.752 357.614 315.848 359.177 316.646 360.943C318.02 363.982 318.144 366.79 318.204 368.138C318.453 373.781 318.12 378.837 317.768 384.19C317.638 386.167 317.504 388.196 317.395 390.326C317.25 393.136 317.07 396.635 317.126 401.237C317.182 405.836 317.452 410.433 317.929 414.903C318.614 421.307 319.433 425.364 319.702 426.696C319.845 427.408 319.875 427.557 319.728 427.839Z" fill="#F2F2F2"/>
<path d="M310.362 359.845C310.311 359.845 310.26 359.844 310.208 359.839C309.159 359.771 308.187 359.008 307.32 357.573C306.913 356.898 306.705 356.128 306.289 354.592C306.225 354.355 305.912 353.154 305.722 351.501C305.598 350.421 305.613 349.969 305.789 349.571C305.985 349.126 306.301 348.816 306.658 348.607C306.642 348.464 306.655 348.317 306.706 348.166C306.916 347.542 307.474 347.624 307.776 347.663C307.929 347.687 308.12 347.718 308.326 347.704C308.649 347.685 308.823 347.568 309.087 347.393C309.339 347.225 309.652 347.016 310.117 346.901C311.034 346.668 311.803 346.984 312.056 347.088C313.389 347.627 314.046 348.885 314.806 350.342C314.958 350.634 315.478 351.698 315.822 353.157C316.07 354.209 316.035 354.676 315.96 355.024C315.808 355.739 315.451 356.148 314.541 357.051C313.592 357.997 313.115 358.47 312.706 358.758C311.754 359.426 311.156 359.845 310.362 359.845Z" fill="#F2F2F2"/>
<path d="M405.997 158.847C403.087 154.718 398.973 153.194 396.81 155.444C394.646 157.693 395.252 162.864 398.163 166.994C399.308 168.663 400.765 169.975 402.413 170.82L414.925 188.127L421.488 180.823L408.456 164.537C408.022 162.429 407.179 160.478 405.997 158.847Z" fill="#FFB6B6"/>
<path d="M499.915 179.952C499.915 179.952 502.652 195.165 491.789 200.016C480.927 204.867 452.778 223.492 450.694 222.639C448.61 221.785 441.793 225.952 433.748 217.063C425.702 208.173 406.265 181.373 406.265 181.373L414.26 168.187L444.362 193.44C444.362 193.44 445.006 193.208 447.86 192.849C450.713 192.49 448.482 194.676 452.945 190.304C457.408 185.932 485.897 170.263 485.897 170.263C485.897 170.263 494.256 165.233 499.915 179.952Z" fill="#2F2E41"/>
<path d="M428.884 392.168L433.309 409.485L421.016 419.637L412.165 410.083C412.165 410.083 415.607 395.154 414.132 391.571L428.884 392.168Z" fill="#FFB6B6"/>
<path d="M491.332 146.739L498.383 165.626L477.754 181.199L476.581 158.682L491.332 146.739Z" fill="#FFB6B6"/>
<path opacity="0.1" d="M491.332 146.739L498.383 165.626L477.754 181.199L476.581 158.682L491.332 146.739Z" fill="black"/>
<path d="M483.225 163.577C491.498 163.577 498.205 155.432 498.205 145.385C498.205 135.338 491.498 127.193 483.225 127.193C474.951 127.193 468.245 135.338 468.245 145.385C468.245 155.432 474.951 163.577 483.225 163.577Z" fill="#FFB6B6"/>
<path d="M477.564 177.193L498.708 159.876L495.266 306.178C495.266 306.178 477.81 269.453 464.533 267.662C464.533 267.662 466.008 263.482 466.992 261.093C467.975 258.705 469.451 246.762 469.451 246.762L476.335 182.269L477.564 177.193Z" fill="#042558"/>
<path d="M494.528 328.571L475.843 248.553C475.843 248.553 478.793 184.061 498.708 159.876L503.379 168.535C503.379 168.535 507.998 169.367 507.164 173.131C506.33 176.895 525.507 315.434 525.507 315.434H505.631C505.631 315.434 503.871 328.571 494.528 328.571Z" fill="#2F2E41"/>
<path d="M477.564 177.193V174.805C477.564 174.805 468.467 175.7 467.975 182.269C467.484 188.838 463.55 214.515 467.484 230.041L462.567 239.596L459.125 262.287L469.942 265.87L475.843 210.765C475.843 210.765 479.777 181.672 477.564 177.193Z" fill="#2F2E41"/>
<path d="M495.02 290.951C495.02 290.951 503.379 320.211 485.677 320.808C467.975 321.405 440.398 321.405 440.398 321.405L426.671 330.363L430.605 395.452L403.068 396.049C403.068 396.049 394.217 316.031 402.085 306.477C409.952 296.922 432.572 286.771 432.572 286.771L458.633 270.647L465.962 259.842L495.02 290.951Z" fill="#2F2E41"/>
<path d="M496.023 155.994C497.068 155.544 506.846 141.627 498.708 132.407C498.708 132.407 495.537 121.144 482.891 122.325C470.244 123.507 466.839 131.907 466.839 136.272C466.839 140.637 470.188 145.544 470.188 145.544C470.188 145.544 467.812 133.548 473.163 134.139C478.513 134.73 477.054 137.093 480.945 135.911C484.836 134.73 488.727 136.502 488.727 136.502L492.619 138.274V145.481C492.619 145.481 494.315 143.827 494.44 145.481C494.564 147.134 496.023 155.994 496.023 155.994Z" fill="#2F2E41"/>
<path d="M411.428 303.491L410.936 322.003L391.759 317.823C391.759 317.823 399.993 301.366 398.826 296.755L411.428 303.491Z" fill="#FFB6B6"/>
<path d="M409.461 317.822C409.461 317.822 412.903 317.822 412.903 320.211C412.903 322.6 418.312 341.111 407.986 341.708C397.659 342.306 398.151 339.917 398.151 339.917C398.151 339.917 369.14 356.04 358.814 332.154C358.814 332.154 356.355 326.183 362.256 324.988C368.156 323.794 391.759 313.795 391.759 313.795C391.759 313.795 405.527 320.211 409.461 317.822Z" fill="#2F2E41"/>
<path d="M429.375 409.485C429.375 409.485 432.817 404.421 433.309 404.863C433.801 405.305 444.619 420.234 437.243 424.414C429.867 428.594 425.933 430.386 425.933 430.386L423.966 426.803C423.966 426.803 409.215 444.12 386.596 432.177C386.596 432.177 384.629 426.803 389.054 425.608C393.48 424.414 412.165 406.217 412.165 406.217C412.165 406.217 420.033 413.068 423.966 411.874C427.9 410.68 429.375 409.485 429.375 409.485Z" fill="#2F2E41"/>
<path d="M464.533 265.87C464.533 265.87 418.558 237.506 414.624 237.506C410.69 237.506 403.171 239.471 401.522 248.64C399.872 257.809 390.038 301.998 390.038 301.998L414.132 309.164L423.475 277.515L438.718 294.235L464.533 275.54V265.87Z" fill="#2F2E41"/>
<path d="M442.885 254.913C438.456 255.702 435.202 259.116 435.616 262.539C436.031 265.961 439.956 268.094 444.385 267.304C446.158 267.018 447.849 266.22 449.316 264.978L468.044 261.346L466.453 250.709L448.16 255.419C446.46 254.741 444.651 254.567 442.885 254.913Z" fill="#FFB6B6"/>
<path d="M507.649 169.659C507.649 169.659 519.707 174.956 517.297 188.703C514.887 202.45 512.859 241.302 511.154 242.988C509.449 244.674 508.718 253.9 498.236 257.428C487.754 260.957 457.676 276.577 457.676 276.577L453.796 251.4L487.436 233.931C487.436 233.931 487.618 233.145 488.888 230.022C490.159 226.898 490.493 230.357 489.826 223.44C489.159 216.523 493.427 178.9 493.427 178.9C493.427 178.9 494.378 167.628 507.649 169.659Z" fill="#2F2E41"/>
<path d="M398.767 58.3219C398.706 58.3936 398.65 58.469 398.59 58.5413C389.212 47.2405 374.11 47.141 364.632 58.3177C355.12 69.5383 354.799 87.9584 363.91 99.6584L363.904 99.6654L364.131 99.9491L397.685 141.904L432.467 100.881L432.37 100.76C432.428 100.692 432.489 100.629 432.547 100.561C442.152 89.2326 442.376 70.5936 433.048 58.9296C423.719 47.2656 408.371 46.9936 398.767 58.3219Z" fill="#042558"/>
<path d="M603 539.027C603 539.386 602.761 539.676 602.465 539.676H232V538.378H602.465C602.761 538.378 603 538.669 603 539.027Z" fill="#E6E6E6"/>
</svg>
