<svg width="471" height="590" viewBox="0 0 471 590" fill="none" xmlns="http://www.w3.org/2000/svg">
<rect width="471" height="589.676" rx="20" fill="#010F21" fill-opacity="0.6"/>
<path d="M324.137 203.245V221.345C322.28 225.707 320.458 231.376 318.675 238.476C318.675 238.476 321.407 249.553 324.137 262.937V301.221H255.952L251.216 309.379H238.234V345.238H259.401V427.775H263.798V345.238H276.227V427.775H280.624V345.238H323.715V427.775H328.113V345.238H344.821V427.775H349.218L349.043 345.238H353.665V203.245H324.137Z" fill="#CCCCCC"/>
<path d="M169.031 373.777C168.616 372.927 166.82 373.837 166.49 373.066C166.161 372.297 167.83 371.125 168.783 368.45C168.955 367.967 170.038 364.926 169.236 363.988C167.716 362.209 160.759 369.549 158.325 367.147C157.79 366.62 157.417 365.568 155.8 363.859C155.157 363.18 154.768 362.873 154.391 362.987C153.857 363.149 153.815 364.017 153.242 365.724C152.383 368.284 151.875 368.13 151.374 370.172C151.003 371.689 151.088 372.57 150.65 372.742C150.032 372.985 149.462 371.377 148.678 371.521C147.878 371.668 147.394 373.54 147.241 374.942C146.955 377.574 147.75 379.31 148.191 381.135C148.671 383.119 148.955 386.136 147.848 390.408L136.894 427.889C139.312 420.198 146.315 399.115 149.257 391.28C150.106 389.018 151.044 386.724 152.97 385.819C154.824 384.947 157.37 385.468 160.616 384.518C160.996 384.407 162.048 384.082 162.18 383.33C162.289 382.709 161.671 382.362 161.766 381.781C161.893 381 163.11 380.99 164.606 380.09C165.66 379.455 166.317 378.7 166.882 378.051C167.052 377.855 169.584 374.909 169.031 373.777Z" fill="#F2F2F2"/>
<path d="M125.934 393.508C125.471 393.51 125.321 394.843 124.914 394.818C124.508 394.792 124.516 393.459 123.71 392.119C123.564 391.877 122.648 390.354 122.037 390.562C120.88 390.955 121.839 397.219 120.166 397.977C119.798 398.143 119.265 398.062 118.108 398.533C117.648 398.72 117.412 398.864 117.349 399.121C117.261 399.486 117.599 399.762 118.124 400.596C118.911 401.847 118.702 402.105 119.383 402.993C119.889 403.651 120.269 403.855 120.213 404.165C120.132 404.604 119.318 404.48 119.15 404.989C118.978 405.508 119.596 406.337 120.118 406.832C121.099 407.762 122.03 407.789 122.895 408.053C123.835 408.34 125.137 409.041 126.544 410.933L138.531 428.276C136.12 424.616 129.62 414.359 127.303 410.345C126.634 409.186 125.977 407.965 126.167 406.556C126.35 405.199 127.295 403.832 127.847 401.623C127.912 401.365 128.084 400.644 127.819 400.348C127.599 400.104 127.28 400.373 127.073 400.148C126.794 399.847 127.141 399.119 127.209 397.968C127.256 397.156 127.141 396.546 127.041 396.022C127.011 395.864 126.551 393.505 125.934 393.508Z" fill="#F2F2F2"/>
<path d="M135.179 396.028L134.899 393.002L135.027 392.773C135.617 391.712 135.918 390.675 135.922 389.692C135.922 389.536 135.916 389.379 135.91 389.22C135.886 388.589 135.856 387.804 136.193 386.889C136.382 386.379 136.913 385.198 137.71 385.344C137.925 385.381 138.088 385.501 138.211 385.641C138.229 385.606 138.248 385.571 138.268 385.533C138.516 385.073 138.713 384.875 138.902 384.685C139.048 384.539 139.198 384.389 139.434 384.032C139.538 383.876 139.618 383.738 139.686 383.623C139.893 383.274 140.162 382.857 140.637 382.865C141.145 382.894 141.411 383.404 141.588 383.741C141.902 384.343 142.045 384.778 142.139 385.065C142.174 385.171 142.213 385.289 142.233 385.326C142.396 385.618 143.726 385.345 144.228 385.245C145.353 385.017 146.328 384.82 146.729 385.682C147.016 386.299 146.803 387.114 146.075 388.171C145.848 388.5 145.607 388.749 145.393 388.945C145.57 389.074 145.729 389.271 145.793 389.581C145.945 390.315 145.426 391.05 144.251 391.769C143.959 391.948 143.566 392.188 143.015 392.303C142.756 392.358 142.523 392.371 142.323 392.378C142.319 392.518 142.291 392.67 142.221 392.827C142.015 393.287 141.585 393.506 140.938 393.454C140.225 393.408 139.639 393.243 139.121 393.098C138.669 392.973 138.28 392.866 137.975 392.891C137.408 392.947 136.971 393.497 136.458 394.212L135.179 396.028Z" fill="#F2F2F2"/>
<path d="M136.473 378.009L134.134 379.104L133.919 379.013C132.924 378.588 132.022 378.498 131.238 378.743C131.113 378.782 130.99 378.829 130.865 378.876C130.368 379.065 129.751 379.299 128.937 379.135C128.482 379.043 127.407 378.719 127.321 377.745C127.296 377.483 127.35 377.262 127.431 377.081C127.398 377.069 127.365 377.056 127.33 377.042C126.9 376.867 126.693 376.686 126.494 376.512C126.341 376.378 126.183 376.239 125.839 376.052C125.688 375.971 125.558 375.911 125.449 375.86C125.118 375.706 124.718 375.495 124.604 374.935C124.498 374.331 124.837 373.889 125.061 373.597C125.461 373.074 125.77 372.797 125.976 372.613C126.051 372.546 126.135 372.47 126.159 372.437C126.35 372.171 125.795 370.677 125.589 370.114C125.122 368.849 124.718 367.755 125.303 367.065C125.721 366.571 126.425 366.615 127.451 367.202C127.77 367.385 128.031 367.605 128.241 367.807C128.298 367.566 128.415 367.329 128.646 367.175C129.191 366.811 129.909 367.234 130.779 368.432C130.997 368.73 131.287 369.13 131.519 369.748C131.628 370.039 131.697 370.309 131.754 370.542C131.867 370.512 131.994 370.505 132.137 370.548C132.556 370.674 132.839 371.123 132.962 371.897C133.106 372.745 133.124 373.476 133.14 374.12C133.154 374.683 133.168 375.167 133.265 375.52C133.453 376.172 134.003 376.545 134.702 376.966L136.473 378.009Z" fill="#F2F2F2"/>
<path d="M135.179 369.093L134.899 366.066L135.027 365.837C135.617 364.776 135.918 363.74 135.922 362.756C135.922 362.6 135.916 362.443 135.91 362.284C135.886 361.653 135.856 360.868 136.193 359.953C136.382 359.443 136.913 358.263 137.71 358.409C137.925 358.445 138.088 358.565 138.211 358.705C138.229 358.67 138.248 358.635 138.268 358.597C138.516 358.137 138.713 357.94 138.902 357.75C139.048 357.603 139.198 357.453 139.434 357.096C139.538 356.94 139.618 356.803 139.686 356.687C139.893 356.338 140.162 355.921 140.637 355.929C141.145 355.958 141.411 356.468 141.588 356.806C141.902 357.408 142.045 357.842 142.139 358.13C142.174 358.235 142.213 358.353 142.233 358.39C142.396 358.682 143.726 358.409 144.228 358.309C145.353 358.081 146.328 357.884 146.729 358.746C147.016 359.363 146.803 360.178 146.075 361.235C145.848 361.564 145.607 361.814 145.393 362.01C145.57 362.138 145.729 362.335 145.793 362.645C145.945 363.379 145.426 364.114 144.251 364.833C143.959 365.013 143.566 365.252 143.015 365.368C142.756 365.422 142.523 365.435 142.323 365.442C142.319 365.583 142.291 365.735 142.221 365.891C142.015 366.351 141.585 366.57 140.938 366.518C140.225 366.472 139.639 366.307 139.121 366.163C138.669 366.037 138.28 365.93 137.975 365.955C137.408 366.011 136.971 366.562 136.458 367.276L135.179 369.093Z" fill="#F2F2F2"/>
<path d="M137.728 427.839L137.206 427.442L136.597 427.526C136.588 427.458 136.555 427.3 136.505 427.053C136.232 425.7 135.401 421.582 134.708 415.096C134.224 410.569 133.951 405.915 133.894 401.26C133.837 396.598 134.019 393.069 134.165 390.233C134.275 388.093 134.408 386.056 134.54 384.072C134.889 378.77 135.218 373.762 134.973 368.217C134.919 366.98 134.805 364.403 133.565 361.662C132.846 360.072 131.856 358.66 130.621 357.468L131.389 356.296C132.752 357.614 133.848 359.177 134.646 360.943C136.02 363.982 136.144 366.79 136.204 368.138C136.453 373.781 136.12 378.837 135.768 384.19C135.638 386.167 135.504 388.196 135.395 390.326C135.25 393.136 135.07 396.635 135.126 401.237C135.182 405.836 135.452 410.433 135.929 414.903C136.614 421.307 137.433 425.364 137.702 426.696C137.845 427.408 137.875 427.557 137.728 427.839Z" fill="#F2F2F2"/>
<path d="M128.362 359.845C128.311 359.845 128.26 359.844 128.208 359.839C127.159 359.771 126.187 359.008 125.32 357.573C124.913 356.898 124.705 356.128 124.289 354.592C124.225 354.355 123.912 353.154 123.722 351.501C123.598 350.421 123.613 349.969 123.789 349.571C123.985 349.126 124.301 348.816 124.658 348.607C124.642 348.464 124.655 348.317 124.706 348.166C124.916 347.542 125.474 347.624 125.776 347.663C125.929 347.687 126.12 347.718 126.326 347.704C126.649 347.685 126.823 347.568 127.087 347.393C127.339 347.225 127.652 347.016 128.117 346.901C129.034 346.668 129.803 346.984 130.056 347.088C131.389 347.627 132.046 348.885 132.806 350.342C132.958 350.634 133.478 351.698 133.822 353.157C134.07 354.209 134.035 354.676 133.96 355.024C133.808 355.739 133.451 356.148 132.541 357.051C131.592 357.997 131.115 358.47 130.706 358.758C129.754 359.426 129.156 359.845 128.362 359.845Z" fill="#F2F2F2"/>
<path d="M223.997 158.847C221.087 154.718 216.973 153.194 214.81 155.444C212.646 157.693 213.252 162.864 216.163 166.994C217.308 168.663 218.765 169.975 220.413 170.82L232.925 188.127L239.488 180.823L226.456 164.537C226.022 162.429 225.179 160.478 223.997 158.847Z" fill="#FFB6B6"/>
<path d="M317.915 179.952C317.915 179.952 320.652 195.165 309.789 200.016C298.927 204.867 270.778 223.492 268.694 222.639C266.61 221.785 259.793 225.952 251.748 217.063C243.702 208.173 224.265 181.373 224.265 181.373L232.26 168.187L262.362 193.44C262.362 193.44 263.006 193.208 265.86 192.849C268.713 192.49 266.482 194.676 270.945 190.304C275.408 185.932 303.897 170.263 303.897 170.263C303.897 170.263 312.256 165.233 317.915 179.952Z" fill="#2F2E41"/>
<path d="M246.884 392.168L251.309 409.485L239.016 419.637L230.165 410.083C230.165 410.083 233.607 395.154 232.132 391.571L246.884 392.168Z" fill="#FFB6B6"/>
<path d="M309.332 146.739L316.383 165.626L295.754 181.199L294.581 158.682L309.332 146.739Z" fill="#FFB6B6"/>
<path opacity="0.1" d="M309.332 146.739L316.383 165.626L295.754 181.199L294.581 158.682L309.332 146.739Z" fill="black"/>
<path d="M301.225 163.577C309.498 163.577 316.205 155.432 316.205 145.385C316.205 135.338 309.498 127.193 301.225 127.193C292.951 127.193 286.245 135.338 286.245 145.385C286.245 155.432 292.951 163.577 301.225 163.577Z" fill="#FFB6B6"/>
<path d="M295.564 177.193L316.708 159.876L313.266 306.178C313.266 306.178 295.81 269.453 282.533 267.662C282.533 267.662 284.008 263.482 284.992 261.093C285.975 258.705 287.451 246.762 287.451 246.762L294.335 182.269L295.564 177.193Z" fill="#042558"/>
<path d="M312.528 328.571L293.843 248.553C293.843 248.553 296.793 184.061 316.708 159.876L321.379 168.535C321.379 168.535 325.998 169.367 325.164 173.131C324.33 176.895 343.507 315.434 343.507 315.434H323.631C323.631 315.434 321.871 328.571 312.528 328.571Z" fill="#2F2E41"/>
<path d="M295.564 177.193V174.805C295.564 174.805 286.467 175.7 285.975 182.269C285.484 188.838 281.55 214.515 285.484 230.041L280.567 239.596L277.125 262.287L287.942 265.87L293.843 210.765C293.843 210.765 297.777 181.672 295.564 177.193Z" fill="#2F2E41"/>
<path d="M313.02 290.951C313.02 290.951 321.379 320.211 303.677 320.808C285.975 321.405 258.398 321.405 258.398 321.405L244.671 330.363L248.605 395.452L221.068 396.049C221.068 396.049 212.217 316.031 220.085 306.477C227.952 296.922 250.572 286.771 250.572 286.771L276.633 270.647L283.962 259.842L313.02 290.951Z" fill="#2F2E41"/>
<path d="M314.023 155.994C315.068 155.544 324.846 141.627 316.708 132.407C316.708 132.407 313.537 121.144 300.891 122.325C288.244 123.507 284.839 131.907 284.839 136.272C284.839 140.637 288.188 145.544 288.188 145.544C288.188 145.544 285.812 133.548 291.163 134.139C296.513 134.73 295.054 137.093 298.945 135.911C302.836 134.73 306.727 136.502 306.727 136.502L310.619 138.274V145.481C310.619 145.481 312.315 143.827 312.44 145.481C312.564 147.134 314.023 155.994 314.023 155.994Z" fill="#2F2E41"/>
<path d="M229.428 303.491L228.936 322.003L209.759 317.823C209.759 317.823 217.993 301.366 216.826 296.755L229.428 303.491Z" fill="#FFB6B6"/>
<path d="M227.461 317.822C227.461 317.822 230.903 317.822 230.903 320.211C230.903 322.6 236.312 341.111 225.986 341.708C215.659 342.306 216.151 339.917 216.151 339.917C216.151 339.917 187.14 356.04 176.814 332.154C176.814 332.154 174.355 326.183 180.256 324.988C186.156 323.794 209.759 313.795 209.759 313.795C209.759 313.795 223.527 320.211 227.461 317.822Z" fill="#2F2E41"/>
<path d="M247.375 409.485C247.375 409.485 250.817 404.421 251.309 404.863C251.801 405.305 262.619 420.234 255.243 424.414C247.867 428.594 243.933 430.386 243.933 430.386L241.966 426.803C241.966 426.803 227.215 444.12 204.596 432.177C204.596 432.177 202.629 426.803 207.054 425.608C211.48 424.414 230.165 406.217 230.165 406.217C230.165 406.217 238.033 413.068 241.966 411.874C245.9 410.68 247.375 409.485 247.375 409.485Z" fill="#2F2E41"/>
<path d="M282.533 265.87C282.533 265.87 236.558 237.506 232.624 237.506C228.69 237.506 221.171 239.471 219.522 248.64C217.872 257.809 208.038 301.998 208.038 301.998L232.132 309.164L241.475 277.515L256.718 294.235L282.533 275.54V265.87Z" fill="#2F2E41"/>
<path d="M260.885 254.913C256.456 255.702 253.202 259.116 253.616 262.539C254.031 265.961 257.956 268.094 262.385 267.304C264.158 267.018 265.849 266.22 267.316 264.978L286.044 261.346L284.453 250.709L266.16 255.419C264.46 254.741 262.651 254.567 260.885 254.913Z" fill="#FFB6B6"/>
<path d="M325.649 169.659C325.649 169.659 337.707 174.956 335.297 188.703C332.887 202.45 330.859 241.302 329.154 242.988C327.449 244.674 326.718 253.9 316.236 257.428C305.754 260.957 275.676 276.577 275.676 276.577L271.796 251.4L305.436 233.931C305.436 233.931 305.618 233.145 306.888 230.022C308.159 226.898 308.493 230.357 307.826 223.44C307.159 216.523 311.427 178.9 311.427 178.9C311.427 178.9 312.378 167.628 325.649 169.659Z" fill="#2F2E41"/>
<path d="M216.767 58.3219C216.706 58.3936 216.65 58.469 216.59 58.5413C207.212 47.2405 192.11 47.141 182.632 58.3177C173.12 69.5383 172.799 87.9584 181.91 99.6584L181.904 99.6654L182.131 99.9491L215.685 141.904L250.467 100.881L250.37 100.76C250.428 100.692 250.489 100.629 250.547 100.561C260.152 89.2326 260.376 70.5936 251.048 58.9296C241.719 47.2656 226.371 46.9936 216.767 58.3219Z" fill="#042558"/>
<path d="M421 539.027C421 539.386 420.761 539.676 420.465 539.676H50V538.378H420.465C420.761 538.378 421 538.669 421 539.027Z" fill="#E6E6E6"/>
</svg>
